<?xml version="1.0" encoding="UTF-8"?>
<svg width="25px" height="28px" viewBox="0 0 25 28" version="1.1" xmlns="http://www.w3.org/2000/svg" xmlns:xlink="http://www.w3.org/1999/xlink">
    <!-- Generator: Sketch 52.5 (67469) - http://www.bohemiancoding.com/sketch -->
    <title>notifications-bell-button</title>
    <desc>Created with Sketch.</desc>
    <g id="Page-1" stroke="none" stroke-width="1" fill="none" fill-rule="evenodd">
        <g id="-g-Desktop-HD-Copy-71" transform="translate(-1290.000000, -28.000000)" fill="#B9C3C5" fill-rule="nonzero" stroke="#FFFFFF" stroke-width="0.5">
            <g id="notifications-bell-button" transform="translate(1291.000000, 29.000000)">
                <path d="M11.5,26.4255319 C12.9565707,26.4255319 14.1483104,25.236383 14.1483104,23.7829787 L8.85168961,23.7829787 C8.85168961,25.236383 10.0434293,26.4255319 11.5,26.4255319 Z M20.1070088,18.4978723 L20.1070088,11.2308511 C20.1070088,7.13489362 17.3262829,3.83170213 13.4862328,2.90680851 L13.4862328,1.98191489 C13.4862328,0.924893617 12.5593242,0 11.5,0 C10.4406758,0 9.51376721,0.924893617 9.51376721,1.98191489 L9.51376721,2.90680851 C5.67371715,3.83170213 2.89299124,7.13489362 2.89299124,11.2308511 L2.89299124,18.4978723 L0.244680851,21.1404255 L0.244680851,22.4617021 L22.7553191,22.4617021 L22.7553191,21.1404255 L20.1070088,18.4978723 Z M17.4586984,19.8191489 L5.54130163,19.8191489 L5.54130163,11.2308511 C5.54130163,7.92765957 8.18961202,5.28510638 11.5,5.28510638 C14.810388,5.28510638 17.4586984,7.92765957 17.4586984,11.2308511 L17.4586984,19.8191489 Z" id="Shape"></path>
            </g>
        </g>
    </g>
</svg>