<?xml version="1.0" encoding="UTF-8"?>
<svg width="32px" height="32px" viewBox="0 0 32 32" version="1.1" xmlns="http://www.w3.org/2000/svg" xmlns:xlink="http://www.w3.org/1999/xlink">
    <!-- Generator: Sketch 52.5 (67469) - http://www.bohemiancoding.com/sketch -->
    <title>Oval Copy 4</title>
    <desc>Created with Sketch.</desc>
    <g id="Page-1" stroke="none" stroke-width="1" fill="none" fill-rule="evenodd">
        <g id="-g-Desktop-HD-Copy-71" transform="translate(-1049.000000, -605.000000)">
            <g id="Oval-Copy-4" transform="translate(1049.000000, 605.000000)">
                <circle fill="#2EA2E5" cx="16" cy="16" r="16"></circle>
                <g id="restaurants" stroke-width="1" transform="translate(10.461538, 8.000000)" stroke="#FFFFFF">
                    <path d="M10.5828346,7.91312927 C10.5664138,7.75139277 10.5538895,7.60332414 10.5338505,7.47148611 L10.5708669,7.44358087 C10.5708669,7.44358087 12.371869,5.23707354 11.4091637,2.77828004 C10.1436473,-0.455026289 8.34988155,0.0279052418 8.34988155,0.0279052418 L8.35906608,7.94843795 L7.80298478,13.1422299 C7.68386426,14.3262094 8.39775241,15.3840459 9.40972018,15.3840459 L9.52104777,15.3840459 C10.5332939,15.3840459 11.2469037,14.3262094 11.1277832,13.1422299 L10.5828346,7.91312927 Z M4.95132862,0.476667089 C4.95132862,0.476667089 4.94854543,0.478090826 4.94743216,0.478375573 C4.91709539,0.129844798 4.52243909,0.0318917049 3.94019581,0.0065491894 L4.23577055,3.12339385 C4.23577055,3.39618182 4.0824168,3.74385836 3.80187128,3.74385836 C3.52160408,3.74385836 3.29421748,3.51150451 3.29421748,3.22447916 L3.13863718,0 C3.02285649,0.00056949473 2.90484924,0.00142373683 2.78350217,0.00142373683 C2.66438165,0.00142373683 2.54860096,0.00056949473 2.4347685,0 L2.27890988,3.22476391 C2.27890988,3.51178925 2.0518016,3.7441431 1.77125608,3.7441431 C1.49071056,3.7441431 1.33763513,3.39646657 1.33763513,3.12367859 L1.63320987,0.00626444203 C1.0217431,0.0313222102 0.614005809,0.134970251 0.614005809,0.521372425 C0.614005809,0.52308091 0.614562447,0.525358888 0.614562447,0.52735212 L0.0175682585,4.71968758 C-0.138012045,6.05714595 0.767081242,6.81514343 1.65074397,7.16652168 L1.12527775,13.1416604 C1.00587892,14.3262094 1.72032371,15.3846154 2.73284812,15.3846154 L2.84445403,15.3846154 C3.85697844,15.3846154 4.57114491,14.3262094 4.45202439,13.1416604 L3.93991749,7.15684027 C4.81550896,6.80090607 5.70919117,6.04547131 5.55500246,4.71940283 L4.95132862,0.476667089 Z" id="Shape" stroke-width="0.5" fill-rule="nonzero"></path>
                </g>
            </g>
        </g>
    </g>
</svg>