<?xml version="1.0" encoding="UTF-8"?>
<svg width="17px" height="17px" viewBox="0 0 17 17" version="1.1" xmlns="http://www.w3.org/2000/svg" xmlns:xlink="http://www.w3.org/1999/xlink">
    <!-- Generator: Sketch 52.5 (67469) - http://www.bohemiancoding.com/sketch -->
    <title>Combined Shape</title>
    <desc>Created with Sketch.</desc>
    <g id="Page-1" stroke="none" stroke-width="1" fill="none" fill-rule="evenodd">
        <g id="-g-Desktop-HD-Copy-71" transform="translate(-439.000000, -703.000000)" fill="#373737" fill-rule="nonzero">
            <path d="M446.650128,704.211338 L444.945053,705.50225 C444.737824,705.659144 444.417958,705.645646 444.230611,705.472102 C444.043264,705.298559 444.059382,705.030687 444.266611,704.873794 L446.597104,703.109377 C446.781798,702.969545 447.060535,702.963065 447.254208,703.094101 L449.862038,704.858518 C450.079341,705.005542 450.113179,705.272253 449.937617,705.454233 C449.762055,705.636213 449.443575,705.66455 449.226272,705.517526 L447.5,704.349558 L447.5,712.224442 C447.5,712.464401 447.309721,712.658927 447.075,712.658927 C446.840279,712.658927 446.65,712.464401 446.65,712.224442 L446.65,704.222123 C446.65,704.218517 446.650043,704.214922 446.650128,704.211338 Z M443.699907,707.104008 L443.699907,708.086584 L440.408242,708.086584 C440.148992,708.086584 439.938828,708.306541 439.938828,708.577871 L439.938828,717.817803 C439.938828,718.089134 440.148992,718.309091 440.408242,718.309091 L454.591758,718.309091 C454.851008,718.309091 455.061172,718.089134 455.061172,717.817803 L455.061172,708.577871 C455.061172,708.306541 454.851008,708.086584 454.591758,708.086584 L451.30624,708.086584 L451.30624,707.104008 L454.591758,707.104008 C455.369508,707.104008 456,707.763879 456,708.577871 L456,717.817803 C456,718.631795 455.369508,719.291667 454.591758,719.291667 L440.408242,719.291667 C439.630492,719.291667 439,718.631795 439,717.817803 L439,708.577871 C439,707.763879 439.630492,707.104008 440.408242,707.104008 L443.699907,707.104008 Z" id="Combined-Shape"></path>
        </g>
    </g>
</svg>