<?xml version="1.0" encoding="UTF-8"?>
<svg width="11px" height="14px" viewBox="0 0 11 14" version="1.1" xmlns="http://www.w3.org/2000/svg" xmlns:xlink="http://www.w3.org/1999/xlink">
    <!-- Generator: Sketch 52.5 (67469) - http://www.bohemiancoding.com/sketch -->
    <title>Shape Copy</title>
    <desc>Created with Sketch.</desc>
    <g id="Page-1" stroke="none" stroke-width="1" fill="none" fill-rule="evenodd">
        <g id="-g-Desktop-HD-Copy-71" transform="translate(-1105.000000, -620.000000)" fill="#0A96D4" fill-rule="nonzero" stroke="#0A96D4" stroke-width="0.5">
            <path d="M1106,625.640292 C1106,623.077876 1108.06664,621 1110.61677,621 C1113.1669,621 1115.23354,623.077876 1115.23354,625.640292 C1115.23354,626.331772 1115.08224,627.002521 1114.8005,627.602701 C1114.18788,629.111514 1112.9602,630.867207 1111.50351,632.588672 C1111.31441,632.845424 1110.98319,633 1110.62418,633 C1110.40564,633 1110.19693,632.942672 1110.02385,632.838945 L1109.97595,632.87556 L1109.80218,632.670633 C1108.41199,631.031231 1107.20506,629.328652 1106.54934,627.837024 C1106.1905,627.16716 1106,626.417375 1106,625.640292 Z M1109.86478,632.250282 C1109.87074,632.246355 1109.87305,632.244833 1109.87426,632.244062 C1109.87286,632.244904 1109.87169,632.245607 1109.87062,632.246267 L1109.86478,632.250282 Z M1109.87588,632.24308 C1109.87535,632.243386 1109.87502,632.243574 1109.87426,632.244062 C1109.87434,632.244009 1109.87489,632.243682 1109.87588,632.24308 Z M1110.22769,632.286159 C1110.31538,632.376389 1110.46074,632.434681 1110.62418,632.434681 C1110.81188,632.434681 1110.9736,632.358113 1111.05094,632.249806 C1112.48863,630.550251 1113.69181,628.830555 1114.28266,627.376404 C1114.53538,626.837217 1114.66823,626.248315 1114.66823,625.640292 C1114.66823,623.38941 1112.854,621.565319 1110.61677,621.565319 C1108.37955,621.565319 1106.56532,623.38941 1106.56532,625.640292 C1106.56532,626.327131 1106.73425,626.988516 1107.05248,627.579049 C1107.6765,629.00089 1108.82413,630.631619 1110.14901,632.205201 L1110.22769,632.286159 Z M1110.61677,627.103162 C1111.45798,627.103162 1112.13945,626.424944 1112.13945,625.589148 C1112.13945,624.753127 1111.45811,624.075135 1110.61677,624.075135 C1109.77555,624.075135 1109.09427,624.753197 1109.09427,625.589148 C1109.09427,626.4251 1109.77555,627.103162 1110.61677,627.103162 Z M1110.61677,627.668481 C1109.46393,627.668481 1108.52895,626.737916 1108.52895,625.589148 C1108.52895,624.440381 1109.46393,623.509816 1110.61677,623.509816 C1111.7697,623.509816 1112.70477,624.440284 1112.70477,625.589148 C1112.70477,626.737769 1111.76959,627.668481 1110.61677,627.668481 Z" id="Shape-Copy"></path>
        </g>
    </g>
</svg>