<?xml version="1.0" encoding="UTF-8"?>
<svg width="23px" height="7px" viewBox="0 0 23 7" version="1.1" xmlns="http://www.w3.org/2000/svg" xmlns:xlink="http://www.w3.org/1999/xlink">
    <!-- Generator: Sketch 52.5 (67469) - http://www.bohemiancoding.com/sketch -->
    <title>Combined Shape</title>
    <desc>Created with Sketch.</desc>
    <g id="Page-1" stroke="none" stroke-width="1" fill="none" fill-rule="evenodd">
        <g id="-g-Desktop-HD-Copy-71" transform="translate(-935.000000, -708.000000)" fill="#373737" fill-rule="nonzero">
            <path d="M938.351852,714.203704 C936.776818,714.203704 935.5,712.926886 935.5,711.351852 C935.5,709.776818 936.776818,708.5 938.351852,708.5 C939.926886,708.5 941.203704,709.776818 941.203704,711.351852 C941.203704,712.926886 939.926886,714.203704 938.351852,714.203704 Z M938.351852,713.388889 C939.476876,713.388889 940.388889,712.476876 940.388889,711.351852 C940.388889,710.226827 939.476876,709.314815 938.351852,709.314815 C937.226827,709.314815 936.314815,710.226827 936.314815,711.351852 C936.314815,712.476876 937.226827,713.388889 938.351852,713.388889 Z M946.5,714.203704 C944.924966,714.203704 943.648148,712.926886 943.648148,711.351852 C943.648148,709.776818 944.924966,708.5 946.5,708.5 C948.075034,708.5 949.351852,709.776818 949.351852,711.351852 C949.351852,712.926886 948.075034,714.203704 946.5,714.203704 Z M946.5,713.388889 C947.625024,713.388889 948.537037,712.476876 948.537037,711.351852 C948.537037,710.226827 947.625024,709.314815 946.5,709.314815 C945.374976,709.314815 944.462963,710.226827 944.462963,711.351852 C944.462963,712.476876 945.374976,713.388889 946.5,713.388889 Z M954.648148,714.203704 C953.073114,714.203704 951.796296,712.926886 951.796296,711.351852 C951.796296,709.776818 953.073114,708.5 954.648148,708.5 C956.223182,708.5 957.5,709.776818 957.5,711.351852 C957.5,712.926886 956.223182,714.203704 954.648148,714.203704 Z M954.648148,713.388889 C955.773173,713.388889 956.685185,712.476876 956.685185,711.351852 C956.685185,710.226827 955.773173,709.314815 954.648148,709.314815 C953.523124,709.314815 952.611111,710.226827 952.611111,711.351852 C952.611111,712.476876 953.523124,713.388889 954.648148,713.388889 Z" id="Combined-Shape"></path>
        </g>
    </g>
</svg>