<?xml version="1.0" encoding="UTF-8"?>
<svg width="18px" height="18px" viewBox="0 0 18 18" version="1.1" xmlns="http://www.w3.org/2000/svg" xmlns:xlink="http://www.w3.org/1999/xlink">
    <!-- Generator: Sketch 52.5 (67469) - http://www.bohemiancoding.com/sketch -->
    <title>Combined Shape</title>
    <desc>Created with Sketch.</desc>
    <g id="Page-1" stroke="none" stroke-width="1" fill="none" fill-rule="evenodd">
        <g id="-g-Desktop-HD-Copy-71" transform="translate(-696.000000, -699.000000)" fill="#373737" fill-rule="nonzero">
            <path d="M713.37931,707.689655 L713.37931,705.113671 C713.37931,704.136741 712.562179,703.344828 711.554369,703.344828 L696.62069,703.344828 L696.62069,715.758621 L711.554369,715.758621 C712.562038,715.758621 713.37931,714.966471 713.37931,713.989777 L713.37931,711.413793 L711.775198,711.413793 C710.60434,711.413793 709.655172,710.580116 709.655172,709.551724 C709.655172,708.523332 710.60434,707.689655 711.775198,707.689655 L713.37931,707.689655 Z M713.37931,708.20064 L711.775198,708.20064 C710.925644,708.20064 710.236945,708.805541 710.236945,709.551724 C710.236945,710.297907 710.925644,710.902808 711.775198,710.902808 L713.37931,710.902808 L713.37931,708.20064 Z M698.085241,702.724138 L708.95013,699.078697 C709.715273,698.821894 710.550563,699.214299 710.815355,699.954364 C710.869118,700.10386 710.896552,700.261031 710.896552,700.41928 L710.896552,702.724138 L711.575931,702.724138 C712.914614,702.724138 714,703.779952 714,705.082458 L714,714.020991 C714,715.323242 712.914488,716.37931 711.575931,716.37931 L696.489971,716.37931 C696.219423,716.37931 696,716.165839 696,715.902629 L696,703.20082 C696,702.937609 696.219423,702.724138 696.489971,702.724138 L698.085241,702.724138 Z M699.907439,702.724138 L710.299748,702.724138 L710.299748,700.41928 C710.299748,700.325662 710.28352,700.232688 710.251569,700.143843 C710.094513,699.704887 709.599283,699.472236 709.14562,699.624498 L699.907439,702.724138 Z M712.137931,708.931034 C712.480552,708.931034 712.758621,709.208823 712.758621,709.551724 C712.758621,709.894626 712.480552,710.172414 712.137931,710.172414 C711.79531,710.172414 711.517241,709.894626 711.517241,709.551724 C711.517241,709.208823 711.79531,708.931034 712.137931,708.931034 Z" id="Combined-Shape"></path>
        </g>
    </g>
</svg>