<?xml version="1.0" encoding="UTF-8"?>
<svg width="13px" height="17px" viewBox="0 0 13 17" version="1.1" xmlns="http://www.w3.org/2000/svg" xmlns:xlink="http://www.w3.org/1999/xlink">
    <!-- Generator: Sketch 52.5 (67469) - http://www.bohemiancoding.com/sketch -->
    <title>Path 26</title>
    <desc>Created with Sketch.</desc>
    <g id="Page-1" stroke="none" stroke-width="1" fill="none" fill-rule="evenodd">
        <g id="-g-Desktop-HD-Copy-71" transform="translate(-822.000000, -703.000000)" fill="#373737" fill-rule="nonzero">
            <path d="M823.181963,712.00435 L825.934954,712.00435 C826.215539,712.00435 826.411253,712.282566 826.316437,712.546646 L824.300817,718.160508 L833.574466,709.115555 C831.400048,709.178436 830.230249,709.209618 830.042431,709.209618 C829.692905,709.209618 829.584615,708.949825 829.605625,708.692554 C829.613127,708.600697 829.639304,708.49507 829.683349,708.36197 C829.758435,708.135064 829.893629,707.808504 830.0905,707.376328 C830.429983,706.63109 830.957247,705.562847 831.673013,704.16988 L826.511196,704.16988 L823.181963,712.00435 Z M822.569315,712.815004 C822.278858,712.815004 822.082675,712.518475 822.196272,712.251154 L825.86999,703.60603 C825.93358,703.456387 826.080438,703.359226 826.243032,703.359226 L832.338213,703.359226 C832.642042,703.359226 832.837858,703.681143 832.698143,703.950942 C831.831078,705.625305 831.207416,706.879962 830.828217,707.712385 C830.703944,707.985193 830.606591,708.211287 830.536629,708.388881 C831.219025,708.371999 832.574176,708.333953 834.589508,708.275033 C834.958668,708.26424 835.148749,708.712485 834.884363,708.970352 L823.608235,719.968401 C823.300395,720.26865 822.79843,719.945988 822.943742,719.541267 L825.358762,712.815004 L822.569315,712.815004 Z" id="Path-26"></path>
        </g>
    </g>
</svg>