<?xml version="1.0" encoding="UTF-8"?>
<svg width="17px" height="15px" viewBox="0 0 17 15" version="1.1" xmlns="http://www.w3.org/2000/svg" xmlns:xlink="http://www.w3.org/1999/xlink">
    <!-- Generator: Sketch 52.5 (67469) - http://www.bohemiancoding.com/sketch -->
    <title>Combined Shape</title>
    <desc>Created with Sketch.</desc>
    <g id="Page-1" stroke="none" stroke-width="1" fill="none" fill-rule="evenodd">
        <g id="-g-Desktop-HD-Copy-71" transform="translate(-325.000000, -407.000000)" fill="#373737" fill-rule="nonzero">
            <path d="M333.5,415.099794 L335.226272,413.949809 C335.443575,413.805048 335.762055,413.83295 335.937617,414.012128 C336.113179,414.191306 336.079341,414.45391 335.862038,414.59867 L333.431969,416.2175 C333.356247,416.344524 333.224657,416.428571 333.075,416.428571 C333.054041,416.428571 333.033436,416.426923 333.013289,416.423739 C332.867089,416.442229 332.71344,416.407601 332.597104,416.320878 L330.266611,414.583629 C330.059382,414.429152 330.043264,414.165405 330.230611,413.994533 C330.417958,413.823662 330.737824,413.810372 330.945053,413.964849 L332.65,415.23579 L332.65,407.461779 C332.65,407.206745 332.840279,407 333.075,407 C333.309721,407 333.5,407.206745 333.5,407.461779 L333.5,415.099794 Z M329.699907,409.571429 L329.699907,410.538875 L326.408242,410.538875 C326.148992,410.538875 325.938828,410.755446 325.938828,411.022599 L325.938828,420.120259 C325.938828,420.387412 326.148992,420.603982 326.408242,420.603982 L340.591758,420.603982 C340.851008,420.603982 341.061172,420.387412 341.061172,420.120259 L341.061172,411.022599 C341.061172,410.755446 340.851008,410.538875 340.591758,410.538875 L337.30624,410.538875 L337.30624,409.571429 L340.591758,409.571429 C341.369508,409.571429 342,410.22114 342,411.022599 L342,420.120259 C342,420.921718 341.369508,421.571429 340.591758,421.571429 L326.408242,421.571429 C325.630492,421.571429 325,420.921718 325,420.120259 L325,411.022599 C325,410.22114 325.630492,409.571429 326.408242,409.571429 L329.699907,409.571429 Z" id="Combined-Shape"></path>
        </g>
    </g>
</svg>