<?xml version="1.0" encoding="UTF-8"?>
<svg width="15px" height="16px" viewBox="0 0 15 16" version="1.1" xmlns="http://www.w3.org/2000/svg" xmlns:xlink="http://www.w3.org/1999/xlink">
    <!-- Generator: Sketch 52.5 (67469) - http://www.bohemiancoding.com/sketch -->
    <title>Path 15 Copy 2</title>
    <desc>Created with Sketch.</desc>
    <g id="Page-1" stroke="none" stroke-width="1" fill="none" fill-rule="evenodd">
        <g id="-g-Desktop-HD-Copy-71" transform="translate(-563.000000, -410.000000)" fill="#4FB4E9" fill-rule="nonzero">
            <path d="M569.145626,415.71666 C568.933865,415.71666 568.762198,415.550898 568.762198,415.34642 C568.762198,415.141942 568.933865,414.97618 569.145626,414.97618 L573.992199,414.97618 C574.20396,414.97618 574.375627,415.141942 574.375627,415.34642 C574.375627,415.550898 574.20396,415.71666 573.992199,415.71666 L569.145626,415.71666 Z M569.017817,422.874635 C568.806055,422.874635 568.634389,422.708873 568.634389,422.504395 C568.634389,422.299917 568.806055,422.134155 569.017817,422.134155 L575.663899,422.134155 C575.87566,422.134155 576.047327,422.299917 576.047327,422.504395 C576.047327,422.708873 575.87566,422.874635 575.663899,422.874635 L569.017817,422.874635 Z M569.273435,418.184927 C569.061674,418.184927 568.890008,418.019165 568.890008,417.814687 C568.890008,417.610209 569.061674,417.444447 569.273435,417.444447 L572.085239,417.444447 C572.297001,417.444447 572.468667,417.610209 572.468667,417.814687 C572.468667,418.019165 572.297001,418.184927 572.085239,418.184927 L569.273435,418.184927 Z M566.8611,423.162711 L564.650283,423.162711 C564.014999,423.162711 563.5,422.665425 563.5,422.051991 L563.5,411.11072 C563.5,410.497286 564.014999,410 564.650283,410 L572.862666,410 C573.49795,410 574.012949,410.497286 574.012949,411.11072 L574.012949,412.279898 L576.349717,412.279898 C576.985001,412.279898 577.5,412.777184 577.5,413.390618 L577.5,424.222613 C577.5,424.836047 576.985001,425.333333 576.349717,425.333333 L568.011383,425.333333 C567.376099,425.333333 566.8611,424.836047 566.8611,424.222613 L566.8611,423.162711 Z M573.246093,412.279898 L573.246093,411.11072 C573.246093,410.906242 573.074427,410.74048 572.862666,410.74048 L564.650283,410.74048 C564.438522,410.74048 564.266856,410.906242 564.266856,411.11072 L564.266856,422.051991 C564.266856,422.256469 564.438522,422.422231 564.650283,422.422231 L566.8611,422.422231 L566.8611,413.390618 C566.8611,412.777184 567.376099,412.279898 568.011383,412.279898 L573.246093,412.279898 Z M567.627956,424.222613 C567.627956,424.427091 567.799622,424.592853 568.011383,424.592853 L576.349717,424.592853 C576.561478,424.592853 576.733144,424.427091 576.733144,424.222613 L576.733144,413.390618 C576.733144,413.18614 576.561478,413.020378 576.349717,413.020378 L568.011383,413.020378 C567.799622,413.020378 567.627956,413.18614 567.627956,413.390618 L567.627956,424.222613 Z" id="Path-15-Copy-2"></path>
        </g>
    </g>
</svg>