<?xml version="1.0" encoding="UTF-8"?>
<svg width="19px" height="16px" viewBox="0 0 19 16" version="1.1" xmlns="http://www.w3.org/2000/svg" xmlns:xlink="http://www.w3.org/1999/xlink">
    <!-- Generator: Sketch 52.5 (67469) - http://www.bohemiancoding.com/sketch -->
    <title>Combined Shape Copy 5</title>
    <desc>Created with Sketch.</desc>
    <g id="Page-1" stroke="none" stroke-width="1" fill="none" fill-rule="evenodd">
        <g id="-g-Desktop-HD-Copy-71" transform="translate(-442.000000, -409.000000)" fill="#373737" fill-rule="nonzero">
            <path d="M446.5,419.333333 L445.545325,419.333333 C444.968008,419.333333 444.5,418.822177 444.5,418.191633 L444.5,410.475034 C444.5,409.84449 444.968008,409.333333 445.545325,409.333333 L456.454675,409.333333 C457.031992,409.333333 457.5,409.84449 457.5,410.475034 L457.5,413.163129 L456.604007,413.163129 L456.604007,410.475034 C456.604007,410.384956 456.537149,410.311934 456.454675,410.311934 L445.545325,410.311934 C445.462851,410.311934 445.395993,410.384956 445.395993,410.475034 L445.395993,418.191633 C445.395993,418.281711 445.462851,418.354733 445.545325,418.354733 L446.5,418.354733 L446.5,414.383902 C446.5,413.803689 446.951937,413.333333 447.509429,413.333333 L459.490571,413.333333 C460.048063,413.333333 460.5,413.803689 460.5,414.383902 L460.5,422.282764 C460.5,422.862978 460.048063,423.333333 459.490571,423.333333 L450.604162,423.333333 L450.604162,422.432846 L459.490571,422.432846 C459.570213,422.432846 459.634776,422.365652 459.634776,422.282764 L459.634776,414.383902 C459.634776,414.301015 459.570213,414.233821 459.490571,414.233821 L447.509429,414.233821 C447.429787,414.233821 447.365224,414.301015 447.365224,414.383902 L447.365224,420.437243 L446.5,420.437243 L446.5,419.333333 Z M448.996323,422.423572 L448.631272,422.072554 C448.469932,421.917416 448.455318,421.650068 448.598631,421.475415 C448.741944,421.300763 448.988914,421.284943 449.150255,421.440081 L450.368748,422.611733 C450.553929,422.789795 450.541296,423.107054 450.342647,423.267205 L449.124154,424.249563 C448.95108,424.389097 448.706283,424.35033 448.577385,424.162975 C448.448487,423.975621 448.484299,423.710625 448.657373,423.571092 L448.966311,423.322024 C444.834456,423.51299 442.630453,421.283383 442.5002,416.79481 C442.493023,416.547512 442.680218,416.340994 442.918311,416.333541 C443.156404,416.326087 443.355234,416.520519 443.36241,416.767817 C443.47909,420.788644 445.307587,422.619094 448.996323,422.423572 Z M449,417.333333 L450,417.333333 C450.276142,417.333333 450.5,417.557191 450.5,417.833333 C450.5,418.109476 450.276142,418.333333 450,418.333333 L449,418.333333 C448.723858,418.333333 448.5,418.109476 448.5,417.833333 C448.5,417.557191 448.723858,417.333333 449,417.333333 Z M452,417.333333 L453,417.333333 C453.276142,417.333333 453.5,417.557191 453.5,417.833333 C453.5,418.109476 453.276142,418.333333 453,418.333333 L452,418.333333 C451.723858,418.333333 451.5,418.109476 451.5,417.833333 C451.5,417.557191 451.723858,417.333333 452,417.333333 Z M455,417.333333 L456,417.333333 C456.276142,417.333333 456.5,417.557191 456.5,417.833333 C456.5,418.109476 456.276142,418.333333 456,418.333333 L455,418.333333 C454.723858,418.333333 454.5,418.109476 454.5,417.833333 C454.5,417.557191 454.723858,417.333333 455,417.333333 Z M458,417.333333 L459,417.333333 C459.276142,417.333333 459.5,417.557191 459.5,417.833333 C459.5,418.109476 459.276142,418.333333 459,418.333333 L458,418.333333 C457.723858,418.333333 457.5,418.109476 457.5,417.833333 C457.5,417.557191 457.723858,417.333333 458,417.333333 Z" id="Combined-Shape-Copy-5"></path>
        </g>
    </g>
</svg>