<?xml version="1.0" encoding="UTF-8"?>
<svg width="10px" height="15px" viewBox="0 0 10 15" version="1.1" xmlns="http://www.w3.org/2000/svg" xmlns:xlink="http://www.w3.org/1999/xlink">
    <!-- Generator: Sketch 52.5 (67469) - http://www.bohemiancoding.com/sketch -->
    <title>ukraine-hryvna copy 3</title>
    <desc>Created with Sketch.</desc>
    <g id="Page-1" stroke="none" stroke-width="1" fill="none" fill-rule="evenodd">
        <g id="-g-Desktop-HD-Copy-71" transform="translate(-556.000000, -258.000000)" fill="#484848" fill-rule="nonzero">
            <g id="ukraine-hryvna-copy-3" transform="translate(556.000000, 258.623573)">
                <path d="M9.30000793,7.76132968 L5.04573211,7.76132968 C5.47384282,7.43533689 5.91741785,7.13522224 6.29939993,6.84579213 C6.39413545,6.77423512 6.48632663,6.70065231 6.57732824,6.62648135 L9.29997489,6.62648135 C9.68668218,6.62648135 10,6.31662972 10,5.9343062 C10,5.55198269 9.68671522,5.24213106 9.29997489,5.24213106 L7.87147427,5.24213106 C8.06623226,4.94721164 8.23240768,4.6308578 8.35466838,4.28176418 C8.6695062,3.38168163 8.51248381,2.34524869 7.98593672,1.55756618 C6.6580203,-0.429137246 3.92978932,-0.282265679 2.02999022,0.704632833 C1.23060351,1.11995753 1.93819556,2.31486146 2.73662402,1.90009224 C3.67961749,1.41023717 4.7265656,1.18909662 5.75781808,1.52436896 C6.46329536,1.75371079 7.0492215,2.38697393 7.11035185,3.13142817 C7.17931349,3.9753107 6.66248117,4.68303887 6.06621243,5.24252315 L0.700025113,5.24252315 C0.313416955,5.24252315 0,5.55240745 0,5.9346983 C0,6.31702181 0.313383912,6.62687344 0.700025113,6.62687344 L4.26759232,6.62687344 C3.94181712,6.86480865 3.62179148,7.10980153 3.32218668,7.3816528 C3.1910373,7.50097982 3.06798356,7.6282794 2.95226546,7.76172178 L0.700025113,7.76172178 C0.313416955,7.76172178 0,8.07150806 0,8.4539296 C0,8.83612241 0.313383912,9.14613741 0.700025113,9.14613741 L2.13566312,9.14613741 C1.68075418,10.395477 1.82403051,11.8138413 2.84774908,12.8580835 C4.26375929,14.3027181 6.69274895,13.9484946 8.33672579,13.1564664 C9.14840466,12.7653861 8.43826826,11.5718218 7.63005895,11.9609743 C6.35739115,12.5743714 4.02482223,12.9032722 3.42059002,11.2185785 C3.13013825,10.4086121 3.28260065,9.73248008 3.6581723,9.14630079 L9.29994184,9.14630079 C9.68664913,9.14630079 9.99996696,8.83631846 9.99996696,8.45409297 C10,8.0717041 9.68671522,7.76132968 9.30000793,7.76132968 Z" id="Shape"></path>
            </g>
        </g>
    </g>
</svg>