<?xml version="1.0" encoding="UTF-8"?>
<svg width="25px" height="25px" viewBox="0 0 25 25" version="1.1" xmlns="http://www.w3.org/2000/svg" xmlns:xlink="http://www.w3.org/1999/xlink">
    <!-- Generator: Sketch 52.5 (67469) - http://www.bohemiancoding.com/sketch -->
    <title>Combined Shape</title>
    <desc>Created with Sketch.</desc>
    <g id="Symbols" stroke="none" stroke-width="1" fill="none" fill-rule="evenodd">
        <g id="Назад" fill="#4FC0FB" fill-rule="nonzero">
            <path d="M12.5,24.5 C5.872583,24.5 0.5,19.127417 0.5,12.5 C0.5,5.872583 5.872583,0.5 12.5,0.5 C19.127417,0.5 24.5,5.872583 24.5,12.5 C24.5,19.127417 19.127417,24.5 12.5,24.5 Z M12.5,23.5 C18.5751322,23.5 23.5,18.5751322 23.5,12.5 C23.5,6.42486775 18.5751322,1.5 12.5,1.5 C6.42486775,1.5 1.5,6.42486775 1.5,12.5 C1.5,18.5751322 6.42486775,23.5 12.5,23.5 Z M14.3033356,15.9895559 C14.5228558,16.1570835 14.5650041,16.4708477 14.3974764,16.6903679 C14.2299488,16.9098881 13.9161846,16.9520363 13.6966644,16.7845087 L8.69666439,12.96874 C8.43564848,12.7695448 8.43421562,12.3771088 8.69376998,12.1760128 L13.69377,8.30214287 C13.912061,8.1330167 14.2261246,8.17287265 14.3952508,8.39116362 C14.5643769,8.6094546 14.524521,8.92351825 14.30623,9.09264442 L9.82024528,12.5682687 L14.3033356,15.9895559 Z" id="Combined-Shape"></path>
        </g>
    </g>
</svg>