<?xml version="1.0" encoding="UTF-8"?>
<svg width="23px" height="23px" viewBox="0 0 23 23" version="1.1" xmlns="http://www.w3.org/2000/svg" xmlns:xlink="http://www.w3.org/1999/xlink">
    <!-- Generator: Sketch 52.5 (67469) - http://www.bohemiancoding.com/sketch -->
    <title>lock-closed</title>
    <desc>Created with Sketch.</desc>
    <g id="Page-1" stroke="none" stroke-width="1" fill="none" fill-rule="evenodd">
        <g id="Desktop-HD-Copy-24" transform="translate(-990.000000, -516.000000)" fill-rule="nonzero" stroke="#7B7A7A">
            <g id="lock-closed" transform="translate(990.500000, 517.000000)">
                <path d="M21.5,13.348789 C21.5,18.9087105 16.8033378,21 11.0106935,21 C5.21683865,21 0.520176399,18.9087105 0.520176399,13.348789 C0.520176399,13.2671284 0.529457543,13.1963558 0.531475183,13.1170284 L0.5,13.1170284 L0.549633942,12.742945 C0.574652678,12.3848048 0.613794892,12.0441634 0.681991122,11.7385194 L1.00965585,9.25331457 C1.1286966,8.50864751 1.95229723,7.9086364 2.92197498,7.79547811 L2.92197498,7.78692319 L2.9409408,7.78692319 C3.13988009,3.45424413 6.66510059,0 10.9981841,0 C15.3296535,0 18.8556811,3.45424413 19.0542169,7.78692319 L19.0739897,7.78692319 L19.0739897,7.79508925 C20.0448781,7.9066921 20.8717069,8.50748093 20.9907477,9.25331457 L21.3006572,11.6024183 C21.4031533,12.011888 21.4612613,12.4742426 21.4826483,12.9824828 L21.5,13.1170284 L21.4891047,13.1170284 C21.4915259,13.1967447 21.5,13.2667395 21.5,13.348789 Z M10.1979881,15.3370306 L10.1979881,16.2749611 C10.1979881,16.7361492 10.5567245,17.1094549 10.9985877,17.1094549 C11.4400473,17.1098437 11.7987837,16.7361492 11.7987837,16.27535 L11.7987837,15.3346974 C12.2809996,15.0659951 12.6098749,14.5686431 12.6098749,13.9927413 C12.6098749,13.1333605 11.8871563,12.4365232 10.99657,12.4365232 C10.1051767,12.4365232 9.38326512,13.1333605 9.38326512,13.9927413 C9.38326512,14.5701985 9.71335101,15.0687171 10.1979881,15.3370306 Z M15.8324494,7.53338642 C15.84052,7.48477891 15.8389059,7.43111621 15.8239753,7.37239834 C15.6133337,4.98557514 13.5351646,3.11088068 10.9981841,3.11088068 C8.32077593,3.11088068 6.15100594,5.19750389 6.15060241,7.77175765 L6.88098807,7.77175765 C7.82685767,7.86352863 8.23361388,8.31305089 8.87360927,8.78240501 C8.94705136,8.83684542 9.02170404,8.87223169 9.09676025,8.89828531 C9.59874906,9.15804385 10.2686055,9.31980964 11.011097,9.31980964 C11.7874849,9.31980964 12.4888165,9.14637805 12.9972618,8.86523221 C13.0428604,8.84306718 13.0888626,8.81545811 13.1336542,8.78240501 C13.1643224,8.76023998 13.1913587,8.73885268 13.2212198,8.71629879 C13.2773102,8.6762462 13.3329971,8.63658248 13.382631,8.59380787 C13.8918833,8.19717058 14.3087277,7.85147396 15.1258719,7.77214651 L15.8453623,7.77214651 C15.8449588,7.69126361 15.8364847,7.61271387 15.8324494,7.53338642 Z" id="Shape"></path>
            </g>
        </g>
    </g>
</svg>