<?xml version="1.0" encoding="UTF-8"?>
<svg width="27px" height="23px" viewBox="0 0 27 23" version="1.1" xmlns="http://www.w3.org/2000/svg" xmlns:xlink="http://www.w3.org/1999/xlink">
    <!-- Generator: Sketch 52.5 (67469) - http://www.bohemiancoding.com/sketch -->
    <title>Combined Shape</title>
    <desc>Created with Sketch.</desc>
    <g id="Page-1" stroke="none" stroke-width="1" fill="none" fill-rule="evenodd" opacity="0.638090588">
        <g id="Desktop-HD-Copy-23" transform="translate(-799.000000, -598.000000)" fill="#303030" fill-rule="nonzero">
            <path d="M818.958785,605.8695 L818.958785,619.44012 L820.766711,619.44012 L820.766711,605.8695 L818.958785,605.8695 Z M822.433718,599.639389 L821.97334,598.642145 C821.829023,598.329535 822.07275,597.976604 822.41595,598.001218 L825.57971,598.228125 C825.93016,598.253259 826.119204,598.651435 825.917328,598.939234 L824.072481,601.569277 C823.8723,601.854658 823.43838,601.815627 823.292253,601.499095 L822.812948,600.460853 L809.528759,606.945073 C809.131259,607.139099 808.664191,607.12692 808.277325,606.91244 L803.651959,604.348124 C803.52509,604.277788 803.372203,604.272656 803.240911,604.334327 L799.644121,606.023821 C799.418149,606.129965 799.148987,606.032674 799.04293,605.806516 C798.936873,605.580358 799.034084,605.310974 799.260056,605.204829 L802.856845,603.515335 C803.250721,603.330323 803.709384,603.345718 804.089989,603.556727 L808.715356,606.121043 C808.844311,606.192536 809,606.196596 809.1325,606.131921 L822.433718,599.639389 Z M818.958785,604.964791 L820.766711,604.964791 C821.265956,604.964791 821.670674,605.369843 821.670674,605.8695 L821.670674,619.44012 C821.670674,619.939776 821.265956,620.344828 820.766711,620.344828 L818.958785,620.344828 C818.45954,620.344828 818.054822,619.939776 818.054822,619.44012 L818.054822,605.8695 C818.054822,605.369843 818.45954,604.964791 818.958785,604.964791 Z M802.687451,607.678916 L804.495377,607.678916 C804.994622,607.678916 805.39934,608.083967 805.39934,608.583624 L805.39934,619.44012 C805.39934,619.939776 804.994622,620.344828 804.495377,620.344828 L802.687451,620.344828 C802.188206,620.344828 801.783488,619.939776 801.783488,619.44012 L801.783488,608.583624 C801.783488,608.083967 802.188206,607.678916 802.687451,607.678916 Z M802.687451,608.583624 L802.687451,619.44012 L804.495377,619.44012 L804.495377,608.583624 L802.687451,608.583624 Z M813.535007,607.678916 L815.342933,607.678916 C815.842178,607.678916 816.246896,608.083967 816.246896,608.583624 L816.246896,619.44012 C816.246896,619.939776 815.842178,620.344828 815.342933,620.344828 L813.535007,620.344828 C813.035762,620.344828 812.631044,619.939776 812.631044,619.44012 L812.631044,608.583624 C812.631044,608.083967 813.035762,607.678916 813.535007,607.678916 Z M813.535007,608.583624 L813.535007,619.44012 L815.342933,619.44012 L815.342933,608.583624 L813.535007,608.583624 Z M808.111229,610.39304 L809.919155,610.39304 C810.4184,610.39304 810.823118,610.798091 810.823118,611.297748 L810.823118,619.44012 C810.823118,619.939776 810.4184,620.344828 809.919155,620.344828 L808.111229,620.344828 C807.611984,620.344828 807.207266,619.939776 807.207266,619.44012 L807.207266,611.297748 C807.207266,610.798091 807.611984,610.39304 808.111229,610.39304 Z M808.111229,611.297748 L808.111229,619.44012 L809.919155,619.44012 L809.919155,611.297748 L808.111229,611.297748 Z" id="Combined-Shape"></path>
        </g>
    </g>
</svg>