<?xml version="1.0" encoding="UTF-8"?>
<svg width="28px" height="24px" viewBox="0 0 28 24" version="1.1" xmlns="http://www.w3.org/2000/svg" xmlns:xlink="http://www.w3.org/1999/xlink">
    <!-- Generator: Sketch 52.5 (67469) - http://www.bohemiancoding.com/sketch -->
    <title>Combined Shape</title>
    <desc>Created with Sketch.</desc>
    <g id="Page-1" stroke="none" stroke-width="1" fill="none" fill-rule="evenodd">
        <g id="Desktop-HD-Copy-24" transform="translate(-1079.000000, -518.000000)" fill-rule="nonzero">
            <g id="Combined-Shape" transform="translate(1079.000000, 518.000000)">
                <path d="M2.38438541,1.14184397 C2.17620879,1.14184397 2.0074483,1.31225096 2.0074483,1.52245863 L2.0074483,16.3664303 C2.0074483,16.5766379 2.17620879,16.7470449 2.38438541,16.7470449 L23.1159264,16.7470449 C23.324103,16.7470449 23.4928635,16.5766379 23.4928635,16.3664303 L23.4928635,1.52245863 C23.4928635,1.31225096 23.324103,1.14184397 23.1159264,1.14184397 L2.38438541,1.14184397 Z M2.38438541,-1.0125234e-13 L23.1159264,-1.0125234e-13 C23.9486329,-1.01421367e-13 24.6236748,0.681627946 24.6236748,1.52245863 L24.6236748,16.3664303 C24.6236748,17.2072609 23.9486329,17.8888889 23.1159264,17.8888889 L2.38438541,17.8888889 C1.55167894,17.8888889 0.876636975,17.2072609 0.876636975,16.3664303 L0.876636975,1.52245863 C0.876636975,0.681627946 1.55167894,-1.01083313e-13 2.38438541,-1.0125234e-13 Z M4.0632888,6.84269867 L6.60374657,6.84269867 C6.85040191,6.84269867 7.05035556,6.58708819 7.05035556,6.27177669 C7.05035556,5.95646518 6.85040191,5.7008547 6.60374657,5.7008547 L4.0632888,5.7008547 C3.81663346,5.7008547 3.6166798,5.95646518 3.6166798,6.27177669 C3.6166798,6.58708819 3.81663346,6.84269867 4.0632888,6.84269867 Z M8.63002684,6.84269867 L11.1704846,6.84269867 C11.41714,6.84269867 11.6170936,6.58708819 11.6170936,6.27177669 C11.6170936,5.95646518 11.41714,5.7008547 11.1704846,5.7008547 L8.63002684,5.7008547 C8.38337151,5.7008547 8.18341785,5.95646518 8.18341785,6.27177669 C8.18341785,6.58708819 8.38337151,6.84269867 8.63002684,6.84269867 Z M13.1967649,6.84269867 L15.7372227,6.84269867 C15.983878,6.84269867 16.1838317,6.58708819 16.1838317,6.27177669 C16.1838317,5.95646518 15.983878,5.7008547 15.7372227,5.7008547 L13.1967649,5.7008547 C12.9501096,5.7008547 12.7501559,5.95646518 12.7501559,6.27177669 C12.7501559,6.58708819 12.9501096,6.84269867 13.1967649,6.84269867 Z M17.7635029,6.84269867 L20.3039607,6.84269867 C20.5506161,6.84269867 20.7505697,6.58708819 20.7505697,6.27177669 C20.7505697,5.95646518 20.5506161,5.7008547 20.3039607,5.7008547 L17.7635029,5.7008547 C17.5168476,5.7008547 17.316894,5.95646518 17.316894,6.27177669 C17.316894,6.58708819 17.5168476,6.84269867 17.7635029,6.84269867 Z" fill="#7B7A7A"></path>
                <ellipse id="Oval" stroke="#6E6B6B" stroke-width="1" fill="#FFFFFF" cx="20.2492205" cy="15.9722222" rx="6.87414254" ry="7.02777778"></ellipse>
                <polyline id="Path-24" stroke="#6E6B6B" stroke-width="1" stroke-linecap="round" points="19.6242984 12.7777778 19.6242984 16.2918888 22.1239866 17.8888889"></polyline>
            </g>
        </g>
    </g>
</svg>