<?xml version="1.0" encoding="UTF-8"?>
<svg width="23px" height="25px" viewBox="0 0 23 25" version="1.1" xmlns="http://www.w3.org/2000/svg" xmlns:xlink="http://www.w3.org/1999/xlink">
    <!-- Generator: Sketch 52.5 (67469) - http://www.bohemiancoding.com/sketch -->
    <title>Combined Shape</title>
    <desc>Created with Sketch.</desc>
    <g id="Page-1" stroke="none" stroke-width="1" fill="none" fill-rule="evenodd">
        <g id="Desktop-HD-Copy-24" transform="translate(-1270.000000, -517.000000)" fill="#7B7A7A">
            <path d="M1289.57603,529.403271 L1286.80368,526.371243 L1277.66459,534.474543 L1280.30766,537.365174 L1289.57603,529.403271 Z M1290.54767,530.46592 L1281.22597,538.369495 L1282.62819,539.903053 L1291.76727,531.799752 L1290.54767,530.46592 Z M1278.11508,536.777062 L1276.75068,535.284873 C1276.2938,534.785193 1276.33259,534.017325 1276.83733,533.569792 L1285.97641,525.466491 C1286.06154,525.391008 1286.15333,525.330956 1286.25013,525.284619 C1286.33892,525.242108 1286.43193,525.21114 1286.52787,525.190387 C1286.94736,525.099644 1287.40845,525.222827 1287.71759,525.560912 L1292.68118,530.989422 C1293.13807,531.489103 1293.09927,532.256971 1292.59454,532.704504 L1283.45545,540.807805 C1282.95071,541.255338 1282.17116,541.213064 1281.71428,540.713383 L1279.23328,538 L1271.81801,538 C1270.81395,538 1270,537.178708 1270,536.165593 L1270,518.834407 C1270,517.821292 1270.81395,517 1271.81801,517 L1274.18329,517 L1274.18329,518.222938 L1271.81801,518.222938 C1271.48333,518.222938 1271.21201,518.496702 1271.21201,518.834407 L1271.21201,536.165593 C1271.21201,536.503298 1271.48333,536.777062 1271.81801,536.777062 L1278.11508,536.777062 Z M1276.5,517 L1281.5,517 C1281.77614,517 1282,517.223858 1282,517.5 C1282,517.776142 1281.77614,518 1281.5,518 L1276.5,518 C1276.22386,518 1276,517.776142 1276,517.5 C1276,517.223858 1276.22386,517 1276.5,517 Z M1283,518.25832 L1283,517 L1285.16115,517 C1286.17672,517 1287,517.845054 1287,518.88748 L1286.99364,525.158739 C1286.87982,525.146488 1286.79751,525.143515 1286.74673,525.149822 C1286.57176,525.17155 1286.47397,525.17868 1286.38179,525.218589 C1286.31076,525.249342 1286.18922,525.276099 1286.08448,525.36064 C1286.05615,525.383507 1286.01688,525.4203 1285.97066,525.462718 C1285.93595,525.494572 1285.87043,525.554983 1285.7741,525.643951 L1285.7741,518.88748 C1285.7741,518.540004 1285.49967,518.25832 1285.16115,518.25832 L1283,518.25832 Z M1273.30124,521.8 C1273.13487,521.8 1273,521.665685 1273,521.5 C1273,521.334315 1273.13487,521.2 1273.30124,521.2 L1283.69876,521.2 C1283.86513,521.2 1284,521.334315 1284,521.5 C1284,521.665685 1283.86513,521.8 1283.69876,521.8 L1273.30124,521.8 Z M1273.30274,525.8 C1273.13554,525.8 1273,525.665685 1273,525.5 C1273,525.334315 1273.13554,525.2 1273.30274,525.2 L1277.69726,525.2 C1277.86446,525.2 1278,525.334315 1278,525.5 C1278,525.665685 1277.86446,525.8 1277.69726,525.8 L1273.30274,525.8 Z M1278.11508,536.777062 L1279.23328,538 L1279.24123,538 L1278.11931,536.777062 L1278.11508,536.777062 Z" id="Combined-Shape"></path>
        </g>
    </g>
</svg>