<?xml version="1.0" encoding="UTF-8"?>
<svg width="12px" height="12px" viewBox="0 0 12 12" version="1.1" xmlns="http://www.w3.org/2000/svg" xmlns:xlink="http://www.w3.org/1999/xlink">
    <!-- Generator: Sketch 52.5 (67469) - http://www.bohemiancoding.com/sketch -->
    <title>edit</title>
    <desc>Created with Sketch.</desc>
    <g id="Page-1" stroke="none" stroke-width="1" fill="none" fill-rule="evenodd" opacity="0.348270089">
        <g id="Desktop-HD-Copy-24" transform="translate(-597.000000, -210.000000)" fill="#000000" fill-rule="nonzero">
            <g id="edit" transform="translate(597.000000, 210.000000)">
                <path d="M11.4068749,3.87270678 C11.4021974,3.87710065 11.3942181,3.87737527 11.3895405,3.88149453 L10.6284769,4.64273314 C10.6202224,4.65289397 10.6180212,4.66799792 10.6086661,4.6773349 C10.5995862,4.68667188 10.5844529,4.68886882 10.5739973,4.69683271 L9.57630498,5.69479127 C9.57080199,5.7016567 9.57107714,5.712916 9.56502385,5.71923219 C9.55924571,5.72499915 9.54796458,5.72499915 9.54081069,5.73021688 L4.77329441,10.4986683 C4.77219382,10.4997668 4.76999262,10.5008652 4.76889202,10.5019637 C4.57848853,10.6950195 4.17484414,10.9649681 3.83228295,11.0973336 L2.16680272,11.663594 L0.592672133,12 C0.592947283,11.9967046 0.592672133,11.994233 0.592672133,11.9914869 C0.433085394,12.0054923 0.274324103,11.9593567 0.157660693,11.8418205 C0.0409972831,11.7242844 -0.00522784147,11.5633588 0.00852963609,11.4024332 C0.00577814057,11.4024332 0.00302664506,11.4018839 0,11.4024332 L0.356043519,9.72260035 L0.992739581,7.8931012 C1.06262757,7.71405084 1.13196525,7.60612632 1.23569663,7.49078714 L8.12901834,0.60201706 C8.12984379,0.601193208 8.12984379,0.599545506 8.13066924,0.598721654 C8.41159693,0.318062973 9.31518805,-0.773265402 11.0428521,0.952153868 C12.7705161,2.67757314 11.6875275,3.5920481 11.4068749,3.87270678 Z M1.59916919,8.26712969 C1.30200768,8.9704241 0.943762961,10.1427645 0.943762961,10.1427645 L1.89275376,11.0899189 C1.89275376,11.0899189 3.10396209,10.6955688 3.80229165,10.4011792 C4.08184359,10.2836431 4.28765546,10.0798772 4.28765546,10.0798772 C4.09917801,9.66108612 3.75524107,9.15524141 3.29904312,8.69992625 C2.86348138,8.26548199 2.37454063,7.92962527 1.96154115,7.73656945 C1.96154115,7.73656945 1.78159334,7.83570622 1.59916919,8.26712969 Z M7.82580353,2.09758181 L2.85632749,7.05853981 C2.85632749,7.05853981 3.04397948,7.13351028 3.22887998,7.24033634 C3.42148467,7.35128165 3.61188816,7.49518101 3.61188816,7.49518101 L8.54174267,2.57376787 C8.54174267,2.57376787 8.35794277,2.37494509 8.16451263,2.24642428 C8.0027247,2.139049 7.82580353,2.09758181 7.82580353,2.09758181 Z M10.4592599,1.55246686 C9.88612337,0.980164813 9.22356325,0.714335455 8.97345231,0.954076188 L8.97207656,0.952428485 L8.38160563,1.54285526 C8.75195692,1.74085419 9.16633215,2.04705227 9.56502385,2.44497245 C9.96371555,2.84289264 10.269957,3.25619138 10.4683398,3.625826 L11.0453284,3.04693314 C11.0483551,3.04418697 11.0530326,3.04336312 11.0557841,3.04061695 C11.0590859,3.03759616 11.0599114,3.03292767 11.0626629,3.02963227 L11.0640386,3.02825918 L11.0637635,3.02770995 C11.2926879,2.77286527 11.0274437,2.11927656 10.4592599,1.55246686 Z" id="Shape"></path>
            </g>
        </g>
    </g>
</svg>