<?xml version="1.0" encoding="UTF-8"?>
<svg width="24px" height="21px" viewBox="0 0 24 21" version="1.1" xmlns="http://www.w3.org/2000/svg" xmlns:xlink="http://www.w3.org/1999/xlink">
    <!-- Generator: Sketch 52.5 (67469) - http://www.bohemiancoding.com/sketch -->
    <title>Combined Shape</title>
    <desc>Created with Sketch.</desc>
    <g id="Page-1" stroke="none" stroke-width="1" fill="none" fill-rule="evenodd" opacity="0.638090588">
        <g id="Desktop-HD-Copy-24" transform="translate(-699.000000, -517.000000)" fill="#303030" fill-rule="nonzero">
            <path d="M711,528.673232 L713.43709,527.015901 C713.743871,526.807276 714.19349,526.847486 714.441342,527.105714 C714.689194,527.363941 714.641422,527.742399 714.334641,527.951024 L710.903957,530.284045 C710.797055,530.467108 710.611281,530.588235 710.4,530.588235 C710.37041,530.588235 710.341321,530.58586 710.312879,530.581271 C710.106479,530.607918 709.889563,530.558013 709.725323,530.433031 L706.435215,527.929348 C706.142657,527.706719 706.119902,527.326612 706.384392,527.080357 C706.648881,526.834101 707.100458,526.814948 707.393016,527.037577 L709.8,528.869226 L709.8,517.665504 C709.8,517.297956 710.068629,517 710.4,517 C710.731371,517 711,517.297956 711,517.665504 L711,528.673232 Z M705.635163,520.705882 L705.635163,522.100144 L700.988107,522.100144 C700.622106,522.100144 700.325404,522.41226 700.325404,522.797274 L700.325404,535.908608 C700.325404,536.293623 700.622106,536.605739 700.988107,536.605739 L721.011893,536.605739 C721.377894,536.605739 721.674596,536.293623 721.674596,535.908608 L721.674596,522.797274 C721.674596,522.41226 721.377894,522.100144 721.011893,522.100144 L716.373515,522.100144 L716.373515,520.705882 L721.011893,520.705882 C722.109894,520.705882 723,521.642231 723,522.797274 L723,535.908608 C723,537.063652 722.109894,538 721.011893,538 L700.988107,538 C699.890106,538 699,537.063652 699,535.908608 L699,522.797274 C699,521.642231 699.890106,520.705882 700.988107,520.705882 L705.635163,520.705882 Z" id="Combined-Shape"></path>
        </g>
    </g>
</svg>