<?xml version="1.0" encoding="UTF-8"?>
<svg width="19px" height="21px" viewBox="0 0 19 21" version="1.1" xmlns="http://www.w3.org/2000/svg" xmlns:xlink="http://www.w3.org/1999/xlink">
    <!-- Generator: Sketch 52.5 (67469) - http://www.bohemiancoding.com/sketch -->
    <title>Path 15</title>
    <desc>Created with Sketch.</desc>
    <g id="Page-1" stroke="none" stroke-width="1" fill="none" fill-rule="evenodd" opacity="0.638090588">
        <g id="Desktop-HD-Copy-24" transform="translate(-901.000000, -516.000000)" fill="#303030" fill-rule="nonzero">
            <path d="M908.546444,524 C908.244651,524 908,523.776142 908,523.5 C908,523.223858 908.244651,523 908.546444,523 L915.453556,523 C915.755349,523 916,523.223858 916,523.5 C916,523.776142 915.755349,524 915.453556,524 L908.546444,524 Z M908.517241,534 C908.231577,534 908,533.776142 908,533.5 C908,533.223858 908.231577,533 908.517241,533 L917.482759,533 C917.768423,533 918,533.223858 918,533.5 C918,533.776142 917.768423,534 917.482759,534 L908.517241,534 Z M908.535714,527 C908.239847,527 908,526.776142 908,526.5 C908,526.223858 908.239847,526 908.535714,526 L912.464286,526 C912.760153,526 913,526.223858 913,526.5 C913,526.776142 912.760153,527 912.464286,527 L908.535714,527 Z M905.561493,534.027191 L902.561099,534.027191 C901.698928,534.027191 901,533.346125 901,532.505987 L901,517.521204 C901,516.681066 901.698928,516 902.561099,516 L913.706475,516 C914.568646,516 915.267574,516.681066 915.267574,517.521204 L915.267574,519.122469 L918.438901,519.122469 C919.301072,519.122469 920,519.803535 920,520.643672 L920,535.478796 C920,536.318934 919.301072,537 918.438901,537 L907.122592,537 C906.260421,537 905.561493,536.318934 905.561493,535.478796 L905.561493,534.027191 Z M914,519.108475 L914,517.507102 C914,517.227037 913.770582,517 913.487581,517 L902.512419,517 C902.229418,517 902,517.227037 902,517.507102 L902,532.492898 C902,532.772963 902.229418,533 902.512419,533 L905.46699,533 L905.46699,520.629782 C905.46699,519.789587 906.155244,519.108475 907.004248,519.108475 L914,519.108475 Z M907,535.488109 C907,535.770819 907.226244,536 907.505331,536 L918.494669,536 C918.773756,536 919,535.770819 919,535.488109 L919,520.511891 C919,520.229181 918.773756,520 918.494669,520 L907.505331,520 C907.226244,520 907,520.229181 907,520.511891 L907,535.488109 Z" id="Path-15"></path>
        </g>
    </g>
</svg>