<?xml version="1.0" encoding="UTF-8"?>
<svg width="28px" height="22px" viewBox="0 0 28 22" version="1.1" xmlns="http://www.w3.org/2000/svg" xmlns:xlink="http://www.w3.org/1999/xlink">
    <!-- Generator: Sketch 52.5 (67469) - http://www.bohemiancoding.com/sketch -->
    <title>Combined Shape</title>
    <desc>Created with Sketch.</desc>
    <g id="Page-1" stroke="none" stroke-width="1" fill="none" fill-rule="evenodd">
        <g id="Desktop-HD-Copy-24" transform="translate(-796.000000, -519.000000)" fill="#7B7A7A" fill-rule="nonzero">
            <path d="M803,534 L801.527783,534 C800.684012,534 800,533.233265 800,532.287449 L800,520.712551 C800,519.766735 800.684012,519 801.527783,519 L817.472217,519 C818.315988,519 819,519.766735 819,520.712551 L819,524 L822.485857,524 C823.322095,524 824,524.705534 824,525.575853 L824,537.424147 C824,538.294466 823.322095,539 822.485857,539 L809.156243,539 L809.156243,537.649269 L822.485857,537.649269 C822.60532,537.649269 822.702163,537.548478 822.702163,537.424147 L822.702163,525.575853 C822.702163,525.451522 822.60532,525.350731 822.485857,525.350731 L804.514143,525.350731 C804.39468,525.350731 804.297837,525.451522 804.297837,525.575853 L804.297837,534.655865 L803,534.655865 L803,534 Z M817.690472,524 L817.690472,520.712551 C817.690472,520.577434 817.592756,520.467901 817.472217,520.467901 L801.527783,520.467901 C801.407244,520.467901 801.309528,520.577434 801.309528,520.712551 L801.309528,532.287449 C801.309528,532.422566 801.407244,532.532099 801.527783,532.532099 L803,532.532099 L803,525.575853 C803,524.705534 803.677905,524 804.514143,524 L817.690472,524 Z M805.825373,538.714699 L805.981755,538.609636 L804.262544,537.232035 C803.939863,536.973472 803.910635,536.527891 804.197261,536.236803 C804.483888,535.945715 804.977829,535.919349 805.300509,536.177912 L807.737497,538.130666 C808.107858,538.427436 808.082591,538.956201 807.685295,539.22312 L805.248307,540.860383 C804.902159,541.092939 804.412566,541.028328 804.15477,540.71607 C803.963714,540.484652 803.953591,540.182161 804.102055,539.946386 C798.936343,539.505951 796.182167,536.35627 796.000314,530.659252 C795.989037,530.305969 796.2832,530.010944 796.657346,530.000296 C797.031492,529.989648 797.343939,530.267408 797.355216,530.620691 C797.534485,536.236738 800.285207,538.86157 805.825373,538.714699 Z M805.5,531 L807.5,531 C807.776142,531 808,531.223858 808,531.5 C808,531.776142 807.776142,532 807.5,532 L805.5,532 C805.223858,532 805,531.776142 805,531.5 C805,531.223858 805.223858,531 805.5,531 Z M810.5,531 L812.5,531 C812.776142,531 813,531.223858 813,531.5 C813,531.776142 812.776142,532 812.5,532 L810.5,532 C810.223858,532 810,531.776142 810,531.5 C810,531.223858 810.223858,531 810.5,531 Z M814.5,531 L816.5,531 C816.776142,531 817,531.223858 817,531.5 C817,531.776142 816.776142,532 816.5,532 L814.5,532 C814.223858,532 814,531.776142 814,531.5 C814,531.223858 814.223858,531 814.5,531 Z M819.5,531 L821.5,531 C821.776142,531 822,531.223858 822,531.5 C822,531.776142 821.776142,532 821.5,532 L819.5,532 C819.223858,532 819,531.776142 819,531.5 C819,531.223858 819.223858,531 819.5,531 Z" id="Combined-Shape"></path>
        </g>
    </g>
</svg>