<?xml version="1.0" encoding="UTF-8"?>
<svg width="8px" height="10px" viewBox="0 0 8 10" version="1.1" xmlns="http://www.w3.org/2000/svg" xmlns:xlink="http://www.w3.org/1999/xlink">
    <!-- Generator: Sketch 52.5 (67469) - http://www.bohemiancoding.com/sketch -->
    <title>ukraine-hryvna copy 7</title>
    <desc>Created with Sketch.</desc>
    <g id="Page-1" stroke="none" stroke-width="1" fill="none" fill-rule="evenodd">
        <g id="Desktop-HD-Copy-24" transform="translate(-1084.000000, -405.000000)" fill="#484848" fill-rule="nonzero">
            <g id="ukraine-hryvna-copy-7" transform="translate(1084.000000, 405.000000)">
                <path d="M7.01000555,5.60540477 L4.03201248,5.60540477 C4.33168997,5.36996553 4.6421925,5.15321606 4.90957995,4.9441832 C4.97589482,4.89250315 5.04042864,4.83936 5.10412977,4.78579208 L7.00998242,4.78579208 C7.28067752,4.78579208 7.5,4.56201035 7.5,4.28588781 C7.5,4.00976527 7.28070065,3.78598354 7.00998242,3.78598354 L6.01003199,3.78598354 C6.14636258,3.57298619 6.26268537,3.34450841 6.34826786,3.09238524 C6.56865434,2.44232562 6.45873867,1.69379072 6.0901557,1.12490891 C5.16061421,-0.309932455 3.25085252,-0.203858546 1.92099315,0.508901491 C1.36142245,0.808858213 1.85673689,1.67184439 2.41563681,1.37228884 C3.07573224,1.01850462 3.80859592,0.858792004 4.53047265,1.10093314 C5.02430675,1.2665689 5.43445505,1.72392562 5.47724629,2.26158701 C5.52551944,2.87105772 5.16373682,3.38219474 4.7463487,3.78626672 L0.990017579,3.78626672 C0.719391869,3.78626672 0.5,4.01007205 0.5,4.28617099 C0.5,4.56229353 0.719368738,4.78607526 0.990017579,4.78607526 L3.48731463,4.78607526 C3.25927199,4.95791736 3.03525404,5.13485666 2.82553068,5.33119369 C2.73372611,5.41737431 2.64758849,5.5093129 2.56658582,5.60568795 L0.990017579,5.60568795 C0.719391869,5.60568795 0.5,5.82942248 0.5,6.10561582 C0.5,6.38164397 0.719368738,6.60554369 0.990017579,6.60554369 L1.99496418,6.60554369 C1.67652793,7.50784447 1.77682135,8.53221874 2.49342436,9.28639362 C3.4846315,10.3297408 5.18492426,10.0739127 6.33570805,9.50189238 C6.90388326,9.21944552 6.40678778,8.35742687 5.84104126,8.63848143 C4.95017381,9.08149044 3.31737556,9.31902993 2.89441302,8.10230673 C2.69109678,7.51733094 2.79782046,7.02901339 3.06072061,6.60566168 L7.00995929,6.60566168 C7.28065439,6.60566168 7.49997687,6.38178556 7.49997687,6.10573381 C7.5,5.82956407 7.28070065,5.60540477 7.01000555,5.60540477 Z" id="Shape"></path>
            </g>
        </g>
    </g>
</svg>