<?xml version="1.0" encoding="UTF-8"?>
<svg width="12px" height="18px" viewBox="0 0 12 18" version="1.1" xmlns="http://www.w3.org/2000/svg" xmlns:xlink="http://www.w3.org/1999/xlink">
    <!-- Generator: Sketch 52.5 (67469) - http://www.bohemiancoding.com/sketch -->
    <title>ukraine-hryvna copy 3</title>
    <desc>Created with Sketch.</desc>
    <g id="Page-1" stroke="none" stroke-width="1" fill="none" fill-rule="evenodd">
        <g id="Desktop-HD-Copy-24" transform="translate(-490.000000, -484.000000)" fill="#484848" fill-rule="nonzero">
            <g id="ukraine-hryvna-copy-3" transform="translate(490.000000, 484.000000)">
                <path d="M11.1600095,9.8310176 L6.05487853,9.8310176 C6.56861138,9.41809339 7.10090142,9.03794817 7.55927992,8.6713367 C7.67296254,8.58069782 7.78359195,8.48749292 7.89279389,8.39354304 L11.1599699,8.39354304 C11.6240186,8.39354304 12,8.00106431 12,7.51678786 C12,7.0325114 11.6240583,6.64003267 11.1599699,6.64003267 L9.44576912,6.64003267 C9.67947871,6.26646808 9.87888921,5.86575322 10.0256021,5.42356797 C10.4034074,4.2834634 10.2149806,2.97064833 9.58312406,1.97291716 C7.98962436,-0.543573844 4.71574718,-0.357536526 2.43598826,0.892534922 C1.47672421,1.41861287 2.32583468,2.93215786 3.28394882,2.4067835 C4.41554099,1.78630041 5.67187872,1.50618905 6.90938169,1.93086735 C7.75595443,2.221367 8.4590658,3.02350032 8.53242222,3.96647568 C8.61517619,5.03539355 7.9949774,5.93184924 7.27945492,6.64052932 L0.840030136,6.64052932 C0.376100346,6.64052932 0,7.03304944 0,7.51728451 C0,8.00156096 0.376060694,8.39403969 0.840030136,8.39403969 L5.12111079,8.39403969 C4.73018055,8.69542429 4.34614978,9.0057486 3.98662402,9.35009354 C3.82924476,9.5012411 3.68158027,9.66248724 3.54271855,9.83151425 L0.840030136,9.83151425 C0.376100346,9.83151425 0,10.2239102 0,10.7083108 C0,11.1924217 0.376060694,11.5851074 0.840030136,11.5851074 L2.56279574,11.5851074 C2.01690502,13.1676041 2.18883661,14.964199 3.4172989,16.2869057 C5.11651114,18.1167762 8.03129874,17.6680931 10.004071,16.6648574 C10.9780856,16.1694891 10.1259219,14.657641 9.15607074,15.1505674 C7.62886939,15.9275371 4.82978667,16.3441448 4.10470803,14.2101995 C3.7561659,13.184242 3.93912078,12.3278081 4.38980676,11.5853143 L11.1599302,11.5853143 C11.623979,11.5853143 11.9999603,11.1926701 11.9999603,10.7085178 C12,10.2241585 11.6240583,9.8310176 11.1600095,9.8310176 Z" id="Shape"></path>
            </g>
        </g>
    </g>
</svg>