<?xml version="1.0" encoding="UTF-8"?>
<svg width="26px" height="25px" viewBox="0 0 26 25" version="1.1" xmlns="http://www.w3.org/2000/svg" xmlns:xlink="http://www.w3.org/1999/xlink">
    <!-- Generator: Sketch 52.5 (67469) - http://www.bohemiancoding.com/sketch -->
    <title>Combined Shape</title>
    <desc>Created with Sketch.</desc>
    <g id="Page-1" stroke="none" stroke-width="1" fill="none" fill-rule="evenodd">
        <g id="Desktop-HD-Copy-97" transform="translate(-32.000000, -136.000000)" fill="#FFFFFF" fill-rule="nonzero">
            <path d="M52.4285714,146.214286 C54.9927506,146.214286 57.0714286,144.135608 57.0714286,141.571429 C57.0714286,139.007249 54.9927506,136.928571 52.4285714,136.928571 C49.8643922,136.928571 47.7857143,139.007249 47.7857143,141.571429 C47.7857143,144.135608 49.8643922,146.214286 52.4285714,146.214286 Z M52.4285714,147.142857 C49.3515564,147.142857 46.8571429,144.648444 46.8571429,141.571429 C46.8571429,138.494414 49.3515564,136 52.4285714,136 C55.5055865,136 58,138.494414 58,141.571429 C58,144.648444 55.5055865,147.142857 52.4285714,147.142857 Z M37.5714286,146.214286 C40.1356078,146.214286 42.2142857,144.135608 42.2142857,141.571429 C42.2142857,139.007249 40.1356078,136.928571 37.5714286,136.928571 C35.0072494,136.928571 32.9285714,139.007249 32.9285714,141.571429 C32.9285714,144.135608 35.0072494,146.214286 37.5714286,146.214286 Z M37.5714286,147.142857 C34.4944135,147.142857 32,144.648444 32,141.571429 C32,138.494414 34.4944135,136 37.5714286,136 C40.6484436,136 43.1428571,138.494414 43.1428571,141.571429 C43.1428571,144.648444 40.6484436,147.142857 37.5714286,147.142857 Z M52.4285714,159.214286 C54.9927506,159.214286 57.0714286,157.135608 57.0714286,154.571429 C57.0714286,152.007249 54.9927506,149.928571 52.4285714,149.928571 C49.8643922,149.928571 47.7857143,152.007249 47.7857143,154.571429 C47.7857143,157.135608 49.8643922,159.214286 52.4285714,159.214286 Z M52.4285714,160.142857 C49.3515564,160.142857 46.8571429,157.648444 46.8571429,154.571429 C46.8571429,151.494414 49.3515564,149 52.4285714,149 C55.5055865,149 58,151.494414 58,154.571429 C58,157.648444 55.5055865,160.142857 52.4285714,160.142857 Z M37.5714286,159.214286 C40.1356078,159.214286 42.2142857,157.135608 42.2142857,154.571429 C42.2142857,152.007249 40.1356078,149.928571 37.5714286,149.928571 C35.0072494,149.928571 32.9285714,152.007249 32.9285714,154.571429 C32.9285714,157.135608 35.0072494,159.214286 37.5714286,159.214286 Z M37.5714286,160.142857 C34.4944135,160.142857 32,157.648444 32,154.571429 C32,151.494414 34.4944135,149 37.5714286,149 C40.6484436,149 43.1428571,151.494414 43.1428571,154.571429 C43.1428571,157.648444 40.6484436,160.142857 37.5714286,160.142857 Z" id="Combined-Shape"></path>
        </g>
    </g>
</svg>