<svg xmlns="http://www.w3.org/2000/svg" width="48" height="48" viewBox="0 0 48 48">
    <g fill="none" fill-rule="evenodd">
        <circle cx="24" cy="24" r="24" fill="#FFB14B"/>
        <path fill-rule="nonzero" stroke="#FFF" d="M34.298 16.464l-.013-.011c-.07-.086-1.426-1.754-3.134-3.126-1.662-1.335-3.657-2.354-3.745-2.4l-.016-.013c-.2-.16-.475-.247-.756-.247-.129 0-.26.018-.385.056-.396.12-.656.413-.656.738v2.593c-5.02.094-9.375 2.26-11.748 5.448a1.765 1.765 0 0 0-.323.466c-.034.052-.072.1-.105.152l.033.011a1.792 1.792 0 0 0-.117.623c0 .974.773 1.764 1.727 1.764a1.7 1.7 0 0 0 1.31-.628l.026.025c1.827-1.24 4.214-1.999 6.836-1.999.813 0 1.602.076 2.361.214v2.435c0 .326.26.618.655.738.125.038.257.057.386.057.28 0 .555-.087.755-.248l.017-.013c.088-.045 2.083-1.065 3.745-2.4 1.708-1.372 3.063-3.04 3.133-3.125l.013-.011a.701.701 0 0 0 .286-.55c.002-.198-.093-.396-.285-.55zm-1.357 9.019c-.528 0-.994.246-1.31.627l-.027-.025c-1.827 1.24-4.214 1.999-6.835 1.999-.808 0-1.594-.075-2.349-.211v-2.449c0-.326-.237-.618-.597-.739a1.109 1.109 0 0 0-.351-.056c-.256 0-.505.086-.688.248l-.016.013c-.08.044-1.897 1.065-3.41 2.401-1.557 1.374-2.79 3.042-2.855 3.13l-.012.01a.728.728 0 0 0-.26.55c0 .198.086.396.26.55l.012.01c.064.087 1.299 1.755 2.854 3.129 1.514 1.336 3.331 2.357 3.411 2.401l.016.014c.182.162.432.248.687.248.118 0 .238-.018.352-.056.36-.12.597-.413.597-.739v-2.592c5.015-.098 9.365-2.262 11.734-5.448a1.77 1.77 0 0 0 .324-.467c.034-.05.073-.1.105-.15-.01-.005-.022-.009-.033-.012.073-.194.117-.403.117-.623 0-.974-.773-1.763-1.726-1.763z"/>
    </g>
</svg>
