<svg xmlns="http://www.w3.org/2000/svg" width="48" height="48" viewBox="0 0 48 48">
    <g fill="none" fill-rule="evenodd">
        <circle cx="24" cy="24" r="24" fill="#71B3CA"/>
        <g fill="#FFF" fill-rule="nonzero">
            <path d="M13.897 17.333h21.539a.568.568 0 0 0 .564-.571c0-.214-.116-.4-.288-.499L24.966 9.421a.558.558 0 0 0-.6 0l-10.769 6.857a.575.575 0 0 0-.242.642c.07.245.29.413.542.413zm10.77-6.753l8.81 5.61H15.855l8.812-5.61zM36.76 30.695h-.573v-1.702a.57.57 0 0 0-.573-.567h-.573V19.8h.573a.57.57 0 0 0 .573-.567.57.57 0 0 0-.573-.567H13.719a.57.57 0 0 0-.573.567.57.57 0 0 0 .573.567h.574v8.625h-.574a.57.57 0 0 0-.573.567v1.702h-.573a.57.57 0 0 0-.573.567V34.1a.57.57 0 0 0 .573.568H36.76a.57.57 0 0 0 .573-.568v-2.837a.57.57 0 0 0-.573-.567zm-2.866-2.27h-1.146v-8.624h1.146v8.625zm-4.547 0v-8.624h2.255v8.625h-2.255zm-2.292 0v-8.624H28.2v8.625h-1.146zm-3.63 0v-8.624h2.484v8.625h-2.484zm-2.293 0v-8.624h1.147v8.625h-1.147zm-3.4 0v-8.624h2.254v8.625h-2.254zm-2.293-8.624h1.146v8.625H15.44V19.8zm20.748 13.73h-23.04V31.83h4.62a.57.57 0 0 0 .573-.568.57.57 0 0 0-.573-.567h-3.474V29.56H35.04v1.135H19.72a.57.57 0 0 0-.572.567.57.57 0 0 0 .573.568h16.465v1.702z"/>
        </g>
    </g>
</svg>
