<svg xmlns="http://www.w3.org/2000/svg" width="48" height="48" viewBox="0 0 48 48">
    <defs>
        <linearGradient id="a" x1="50%" x2="50%" y1="0%" y2="100%">
            <stop offset="0%" stop-color="#6F7BA0"/>
            <stop offset="100%" stop-color="#687397"/>
        </linearGradient>
    </defs>
    <g fill="none" fill-rule="evenodd">
        <circle cx="24" cy="24" r="24" fill="url(#a)"/>
        <g fill="#FFF" fill-rule="nonzero">
            <path d="M20 25.333h-6.667v4H20v-4zm-1.227 3.027h-4.219v-2.049h4.22v2.05zM20 32h10.667v1.333H20z"/>
            <path d="M34.711 10.667H16.656c-1.42 0-2.611 1.192-2.611 2.612v7.771h-.767c-1.42 0-2.611 1.192-2.611 2.613V34.72c0 1.42 1.191 2.612 2.61 2.612h18.605c1.42 0 2.612-1.192 2.612-2.666V26.95h.228c1.42 0 2.611-1.192 2.611-2.667V13.279c-.01-1.42-1.202-2.612-2.622-2.612zm-18.055 1.137h18.055a1.5 1.5 0 0 1 1.475 1.475v1.137H15.182V13.28a1.5 1.5 0 0 1 1.474-1.475zm16.695 22.863a1.5 1.5 0 0 1-1.474 1.474h-18.6a1.5 1.5 0 0 1-1.473-1.474v-11.01a1.5 1.5 0 0 1 1.474-1.475h18.604a1.5 1.5 0 0 1 1.475 1.475v11.01h-.006zm1.36-8.85h-.228v-2.154c0-1.42-1.192-2.613-2.611-2.613h-16.69v-5.502h21.004v8.795a1.5 1.5 0 0 1-1.475 1.475z"/>
        </g>
    </g>
</svg>
