<?xml version="1.0" encoding="UTF-8"?>
<svg width="26px" height="25px" viewBox="0 0 26 25" version="1.1" xmlns="http://www.w3.org/2000/svg" xmlns:xlink="http://www.w3.org/1999/xlink">
    <!-- Generator: Sketch 52.5 (67469) - http://www.bohemiancoding.com/sketch -->
    <title>Combined Shape</title>
    <desc>Created with Sketch.</desc>
    <g id="Page-1" stroke="none" stroke-width="1" fill="none" fill-rule="evenodd">
        <g id="Desktop-HD-Copy-97" transform="translate(-33.000000, -337.000000)" fill="#FFFFFF" fill-rule="nonzero">
            <path d="M57.2167382,361.549865 L34.8413874,361.549865 C34.8407919,361.554484 34.840197,361.559105 34.8396031,361.563726 L34.7317366,361.549865 L34.4117557,361.549865 L34.4117557,361.508748 L33.8477585,361.436274 C34.6775022,354.979157 37.3629427,350.975944 41.9058841,349.523741 L42.2103671,350.476259 C38.3154012,351.721329 35.9077766,355.052024 34.9890078,360.549865 L57.0691178,360.549865 C56.150349,355.052024 53.7427244,351.721329 49.8477585,350.476259 L50.1522415,349.523741 C54.6951828,350.975944 57.3806234,354.979157 58.2103671,361.436274 L57.2185225,361.563726 C57.2179286,361.559105 57.2173337,361.554484 57.2167379,361.549865 Z M46,350.5 C42.4101491,350.5 39.5,347.589851 39.5,344 C39.5,340.410149 42.4101491,337.5 46,337.5 C49.5898509,337.5 52.5,340.410149 52.5,344 C52.5,347.589851 49.5898509,350.5 46,350.5 Z M46,349.5 C49.0375661,349.5 51.5,347.037566 51.5,344 C51.5,340.962434 49.0375661,338.5 46,338.5 C42.9624339,338.5 40.5,340.962434 40.5,344 C40.5,347.037566 42.9624339,349.5 46,349.5 Z" id="Combined-Shape"></path>
        </g>
    </g>
</svg>