<?xml version="1.0" encoding="UTF-8"?>
<svg width="28px" height="22px" viewBox="0 0 28 22" version="1.1" xmlns="http://www.w3.org/2000/svg" xmlns:xlink="http://www.w3.org/1999/xlink">
    <!-- Generator: Sketch 52.5 (67469) - http://www.bohemiancoding.com/sketch -->
    <title>Rectangle 6</title>
    <desc>Created with Sketch.</desc>
    <g id="Page-1" stroke="none" stroke-width="1" fill="none" fill-rule="evenodd">
        <g id="Desktop-HD-Copy-97" transform="translate(-32.000000, -186.000000)" fill="#FFFFFF" fill-rule="nonzero">
            <g id="Rectangle-6" transform="translate(32.000000, 186.000000)">
                <path d="M2.77777778,1.46153846 C2.01071563,1.46153846 1.38888889,2.11589152 1.38888889,2.92307692 L1.38888889,16.0769231 C1.38888889,16.8841085 2.01071563,17.5384615 2.77777778,17.5384615 L22.2222222,17.5384615 C22.9892844,17.5384615 23.6111111,16.8841085 23.6111111,16.0769231 L23.6111111,2.92307692 C23.6111111,2.11589152 22.9892844,1.46153846 22.2222222,1.46153846 L2.77777778,1.46153846 Z M2.77777778,0 L22.2222222,0 C23.7563465,-3.2452673e-16 25,1.30870612 25,2.92307692 L25,16.0769231 C25,17.6912939 23.7563465,19 22.2222222,19 L2.77777778,19 C1.24365347,19 1.54197642e-16,17.6912939 0,16.0769231 L0,2.92307692 C-3.08395285e-16,1.30870612 1.24365347,3.2452673e-16 2.77777778,0 Z"></path>
                <path d="M5.77777778,4.46153846 C5.01071563,4.46153846 4.38888889,5.11589152 4.38888889,5.92307692 L4.38888889,19.0769231 C4.38888889,19.8841085 5.01071563,20.5384615 5.77777778,20.5384615 L25.2222222,20.5384615 C25.9892844,20.5384615 26.6111111,19.8841085 26.6111111,19.0769231 L26.6111111,5.92307692 C26.6111111,5.11589152 25.9892844,4.46153846 25.2222222,4.46153846 L5.77777778,4.46153846 Z M5.77777778,3 L25.2222222,3 C26.7563465,3 28,4.30870612 28,5.92307692 L28,19.0769231 C28,20.6912939 26.7563465,22 25.2222222,22 L5.77777778,22 C4.24365347,22 3,20.6912939 3,19.0769231 L3,5.92307692 C3,4.30870612 4.24365347,3 5.77777778,3 Z"></path>
                <path d="M10,9 L10,8 L5,8 L5.78947368,8 L5.78947368,9 L5,9 L10,9 Z M10,8 L10,9 L8,9 L8,8 L10,8 Z M5,8 L4,8 L4,9 L4,8 L5,8 Z" id="Rectangle-7"></path>
                <polygon id="Path" points="11.8333333 14 11.8333333 13 5 13 6.07894737 13 6.07894737 14 5 14"></polygon>
                <path d="M19,9 L19,8 L14,8 L14.7894737,8 L14.7894737,9 L14,9 L19,9 Z M19,8 L19,9 L17,9 L17,8 L19,8 Z M14,8 L13,8 L13,9 L13,8 L14,8 Z" id="Rectangle-7-Copy"></path>
                <path d="M14,9 L14,8 L10,8 L10.6315789,8 L10.6315789,9 L10,9 L14,9 Z M14,8 L14,9 L13,9 L13,8 L14,8 Z M10,8 L9,8 L9,9 L9,8 L10,8 Z" id="Rectangle-7"></path>
                <path d="M22,9 L22,8 L18,8 L18.6315789,8 L18.6315789,9 L18,9 L22,9 Z M22,8 L22,9 L21,9 L21,8 L22,8 Z M18,8 L17,8 L17,9 L17,8 L18,8 Z" id="Rectangle-7-Copy-2"></path>
            </g>
        </g>
    </g>
</svg>