<svg xmlns="http://www.w3.org/2000/svg" width="24" height="24" viewBox="0 0 24 24">
    <g fill="#FFF" fill-rule="nonzero">
        <path d="M12.188 22.5H1.625v-21h10.563c.448 0 .812-.336.812-.75S12.636 0 12.188 0H.812C.364 0 0 .336 0 .75v22.5c0 .414.364.75.812.75h11.375c.449 0 .813-.336.813-.75s-.364-.75-.812-.75z"/>
        <path d="M23.791 11.099l-4.969-3.933a.863.863 0 0 0-1.018 0c-.281.222-.281.581 0 .803l3.745 2.963H6.72c-.397 0-.72.254-.72.568 0 .313.323.567.72.567H21.55l-3.745 2.964c-.281.222-.281.581 0 .803a.862.862 0 0 0 1.018 0L23.79 11.9c.278-.218.281-.584.001-.802z"/>
    </g>
</svg>
