<svg xmlns="http://www.w3.org/2000/svg" width="40" height="40" viewBox="0 0 40 40">
    <g fill="none" fill-rule="evenodd" transform="translate(1 1)">
        <circle cx="19" cy="19" r="19" stroke="#BBB"/>
        <path fill="#BBB" fill-rule="nonzero" stroke="#FFF" stroke-width=".5" d="M23.431 19.435l1.13.905a.693.693 0 0 1-.867 1.08l-2.24-1.794a.693.693 0 0 1-.082-1.003l1.969-2.19a.693.693 0 0 1 1.03.926l-.621.691h7.758a.693.693 0 1 1 0 1.385H23.43zM11.775 8.24h15.017V7.078a.693.693 0 0 0-.693-.693H12.467a.693.693 0 0 0-.692.693v1.161zm15.017 1.385H11.775v18.007h15.017v-5.795h1.385v9.086c0 1.148-.93 2.078-2.078 2.078H12.467a2.078 2.078 0 0 1-2.078-2.078V7.078C10.39 5.93 11.32 5 12.467 5H26.1c1.147 0 2.078.93 2.078 2.078V15.2h-1.385V9.624zm0 19.392H11.775v1.906c0 .383.31.693.692.693H26.1c.382 0 .693-.31.693-.693v-1.906z"/>
    </g>
</svg>
