<svg xmlns="http://www.w3.org/2000/svg" width="40" height="40" viewBox="0 0 40 40">
    <g fill="none" fill-rule="evenodd" transform="translate(1 1)">
        <path stroke="#C5C5C5" d="M28.308 27.08c-.045-.042-.097-.073-.146-.112l-.736-.798.871-.886c.72-.731.72-1.917 0-2.648l-.651-.663a1.82 1.82 0 0 0-2.605 0l-.765.779-1.763-1.913a7.78 7.78 0 0 0 1.115-4.014C23.628 12.503 20.13 9 15.814 9 11.5 9 8 12.503 8 16.825s3.499 7.825 7.814 7.825c1.087 0 2.12-.223 3.06-.624l6.453 6.289.01-.01.003.003a2.155 2.155 0 0 0 3.075-.108 2.229 2.229 0 0 0-.107-3.12zM14.199 16.617a2.142 2.142 0 1 1 0-4.284 2.142 2.142 0 0 1 0 4.284z"/>
        <circle cx="19" cy="19" r="19" stroke="#BBB"/>
    </g>
</svg>
