<?xml version="1.0" encoding="UTF-8"?>
<svg width="29px" height="27px" viewBox="0 0 29 27" version="1.1" xmlns="http://www.w3.org/2000/svg" xmlns:xlink="http://www.w3.org/1999/xlink">
    <!-- Generator: Sketch 51.3 (57544) - http://www.bohemiancoding.com/sketch -->
    <title>Shape</title>
    <desc>Created with Sketch.</desc>
    <defs></defs>
    <g id="Symbols" stroke="none" stroke-width="1" fill="none" fill-rule="evenodd">
        <g id="Shape" transform="translate(1.000000, -2.000000)" fill-rule="nonzero" stroke="#FFFFFF">
            <g transform="translate(0.000000, 3.000000)">
                <path d="M24.46875,0 L2.53125,0 C1.13357813,0 0,1.1463563 0,2.55978333 L0,11.0923944 C0,12.5058214 1.13357813,13.6521777 2.53125,13.6521777 L5.90625,13.6521777 L5.90625,22.1847888 C5.90625,23.5982159 7.03982813,24.7445722 8.4375,24.7445722 L18.5625,24.7445722 C19.9605938,24.7445722 21.09375,23.5982159 21.09375,22.1847888 L21.09375,13.6521777 L24.46875,13.6521777 C25.8664219,13.6521777 27,12.5058214 27,11.0923944 L27,2.55978333 C27,1.1463563 25.8664219,0 24.46875,0 Z M9.5,21.7752235 C8.671625,21.7752235 8,21.110639 8,20.2907359 C8,19.4708327 8.671625,18.8058748 9.5,18.8058748 C10.328375,18.8058748 11,19.4704594 11,20.2907359 C11,21.1102656 10.328375,21.7752235 9.5,21.7752235 Z M10.79075,17.816092 C10.530875,17.4245223 10.05275,17.1583207 9.5,17.1583207 C8.94725,17.1583207 8.469125,17.4245223 8.20925,17.816092 C8.0795,17.6209652 8,17.3972111 8,17.1550302 C8,16.4268422 8.671625,15.8365262 9.5,15.8365262 C10.328375,15.8365262 11,16.4268422 11,17.1550302 C11,17.3972111 10.9205,17.6209652 10.79075,17.816092 Z M19,21.0328863 C19,21.4426564 18.552,21.7752235 18,21.7752235 C17.448,21.7752235 17,21.4426564 17,21.0328863 L17,19.548212 C17,19.1384419 17.448,18.8058748 18,18.8058748 C18.552,18.8058748 19,19.1384419 19,19.548212 L19,21.0328863 Z M19,15.094189 C19,15.5039591 18.552,15.8365262 18,15.8365262 C17.448,15.8365262 17,15.5039591 17,15.094189 L17,13.6095147 C17,13.1997446 17.448,12.8671775 18,12.8671775 C18.552,12.8671775 19,13.1997446 19,13.6095147 L19,15.094189 Z M18,10.8876117 C17.448,10.8876117 17,10.444189 17,9.89782886 L17,8.90804598 L19,8.90804598 L19,9.89782886 C19,10.444189 18.552,10.8876117 18,10.8876117 Z M24,10.8876117 L20.6153846,10.8876117 L20.6153846,8.21746758 C21.5499615,8.21746758 22.3076923,7.42042954 22.3076923,6.43737147 C22.3076923,5.45431339 21.5499615,4.65727535 20.6153846,4.65727535 L5.38461538,4.65727535 C4.45003846,4.65727535 3.69230769,5.45431339 3.69230769,6.43737147 C3.69230769,7.42042954 4.45003846,8.21746758 5.38461538,8.21746758 L5.38461538,10.8876117 L2,10.8876117 L2,1.98713118 L3.69569231,1.98713118 L3.69569231,1.97956577 L23.1623077,1.97956577 L23.1623077,1.98713118 L24,1.98713118 L24,10.8876117 Z"></path>
            </g>
        </g>
    </g>
</svg>