<?xml version="1.0" encoding="UTF-8"?>
<svg width="30px" height="34px" viewBox="0 0 30 34" version="1.1" xmlns="http://www.w3.org/2000/svg" xmlns:xlink="http://www.w3.org/1999/xlink">
    <!-- Generator: Sketch 51.3 (57544) - http://www.bohemiancoding.com/sketch -->
    <title>Shape Copy 4</title>
    <desc>Created with Sketch.</desc>
    <defs></defs>
    <g id="Shape-Copy-4" stroke="none" stroke-width="1" fill="none" fill-rule="evenodd">
        <g transform="translate(1.000000, 0.000000)" fill-rule="nonzero" stroke="#FFFFFF">
            <path d="M27.0674493,20.867928 C27.0771249,21.7824748 27.0805113,22.7238056 27.0732546,23.6086467 C27.0466468,26.6001597 26.3398469,28.71998 20.8378377,29.0813186 C20.6733531,29.1275816 20.503547,29.1597222 20.3240653,29.1597222 L20.2456932,29.1597222 L15.6357709,29.1597222 L15.4862835,29.1597222 C14.4176175,29.1597222 13.5511707,28.2875425 13.5511707,27.2118056 C13.5511707,26.1360686 14.4176175,25.2638889 15.4862835,25.2638889 L20.3240653,25.2638889 C21.2519518,25.2638889 22.0250293,25.9217977 22.2137028,26.7988472 C22.2335377,26.8061519 22.25047,26.8119957 22.25047,26.8119957 C22.4178572,26.7404097 22.5678285,26.6707717 22.7003837,26.6069774 C24.0012632,26.103928 25.1695875,25.1927899 25.1695875,23.5375477 C25.1695875,23.0194019 25.1608795,22.2285477 25.148785,21.3675686 L25.0263892,21.3675686 C24.5058438,22.8056181 23.8280706,24.1891259 23.0448337,25.4703681 C22.5262235,24.5455946 21.4328848,24.232467 20.5901433,24.1345842 C21.6897711,22.4062951 22.5828256,20.422829 23.0477364,18.3916389 L21.2800109,19.6470712 C21.1619691,21.6928707 19.4822912,23.3159722 17.4213962,23.3159722 C15.683665,23.3159722 14.2134631,22.1632925 13.7238796,20.5752535 L13.3779782,20.5752535 C12.8888784,22.1632925 11.4186765,23.3159722 9.68094531,23.3159722 C7.61956648,23.3159722 5.93988864,21.6928707 5.82184677,19.6475582 L2.95352594,17.6105243 C2.8635432,17.9854983 2.85677031,18.4213446 2.96416906,18.8737483 C3.21912016,19.9499722 3.99316525,20.6848238 4.71399474,20.5601571 C6.22047999,24.5509514 9.15265953,28.0391832 11.7123299,29.2863368 C12.1128982,29.5473576 13.1210919,30.1336806 14.1055805,30.1336806 C14.7490055,30.1336806 17.105489,30.1336806 19.2626559,30.1336806 C17.3038381,31.9442691 15.2439106,33.0555556 13.550687,33.0555556 C10.0374898,33.0555556 4.94959471,28.2933863 2.45958842,22.3722066 C0.0513406421,21.9743446 0.0102194968,17.1142925 0.0102194968,17.1142925 C-0.070087681,16.42473 0.329513095,15.794092 0.976324521,15.4303186 C1.00051343,10.4821233 2.89837523,6.73481858 5.82910344,4.44796441 C6.04970629,6.51129514 6.770052,9.59095139 9.03800411,11.2978134 C7.69358454,13.1877795 5.85861391,14.6983889 3.70483345,15.6182925 C3.70483345,15.630954 3.70676857,15.6445894 3.70725234,15.6572509 L6.43769639,17.5959149 C7.12756407,16.8128524 8.31959351,16.4982639 9.68094531,16.4982639 C11.4810839,16.4982639 12.9803125,17.0553681 13.413294,18.5143576 L13.6890475,18.5143576 C14.1225128,17.0607248 15.6212576,16.5172561 17.4213962,16.5172561 C18.7803291,16.5172561 19.9709072,16.822592 20.6612586,17.5983498 L23.3955729,15.6567639 C23.397508,15.5822561 23.4023458,15.5067743 23.4023458,15.4327535 C23.4023458,15.1020946 23.3825109,14.7845842 23.362676,14.4675608 C22.8411631,14.5109019 22.3128774,14.5376858 21.7753998,14.5376858 C17.7595571,14.5376858 14.1457341,13.3017326 11.5933204,11.3270321 C11.2938618,11.0567587 11.0800318,10.8746285 11.0800318,10.8746285 C11.0800318,10.8746285 10.9789222,10.8030425 10.8163727,10.6686363 C10.5140113,10.3915451 10.2266471,10.1056884 9.9649231,9.80619618 C9.96008532,9.81593576 9.95476376,9.82421441 9.94992597,9.83346701 C9.32391701,9.14244358 8.57938239,8.11296962 8.10818244,6.75965451 C7.69551966,5.57532118 7.70422766,4.16795139 7.7787295,3.21590712 C9.50872027,2.3490842 11.4685057,1.88888889 13.5511707,1.88888889 C19.6690296,1.88888889 24.7612787,5.79300087 25.8913845,12.6024306 L26.1294034,12.6024306 C27.1980694,12.6024306 28.0645161,13.271053 28.0645161,16.4982639 C28.0645161,18.6969748 27.6620127,20.1583993 27.0674493,20.867928 Z M9.68094531,18.4286493 C8.61227931,18.4286493 7.74583259,18.3444019 7.74583259,19.4201389 C7.74583259,20.4958759 8.61227931,21.3680556 9.68094531,21.3680556 C10.7496113,21.3680556 11.616058,20.4958759 11.616058,19.4201389 C11.616058,18.3444019 10.7496113,18.4286493 9.68094531,18.4286493 Z M17.4213962,18.435954 C16.3527302,18.435954 15.4862835,18.3444019 15.4862835,19.4201389 C15.4862835,20.4958759 16.3527302,21.3680556 17.4213962,21.3680556 C18.4900622,21.3680556 19.3565089,20.4958759 19.3565089,19.4201389 C19.3565089,18.3444019 18.4900622,18.435954 17.4213962,18.435954 Z"></path>
        </g>
    </g>
</svg>