<?xml version="1.0" encoding="UTF-8"?>
<svg width="30px" height="33px" viewBox="0 0 30 33" version="1.1" xmlns="http://www.w3.org/2000/svg" xmlns:xlink="http://www.w3.org/1999/xlink">
    <!-- Generator: Sketch 51.3 (57544) - http://www.bohemiancoding.com/sketch -->
    <title>dollar</title>
    <desc>Created with Sketch.</desc>
    <defs></defs>
    <g id="dollar" stroke="none" stroke-width="1" fill="none" fill-rule="evenodd">
        <g transform="translate(3.000000, 0.000000)" id="Shape" stroke="#FFFFFF">
            <g>
                <g>
                    <g>
                        <path d="M19.4886665,11.3548387 L17.795766,11.3548387 C16.7292736,11.2996129 15.8600947,11.1416774 15.4989359,10.1316129 C15.4240067,9.03225806 14.9194834,7.49264516 12.9878084,6.82890323 L12.9878084,14.8232258 C16.4105747,15.824 19.3413058,17.156129 20.4357717,19.6387097 C22.2750341,23.8131613 19.5695901,28.676129 13.0217763,29.7625806 L13.0217763,30.5037419 C13.0217763,31.6087742 11.9038325,32 10.524136,32 C9.14443951,32 8.02649572,31.6082581 8.02649572,30.5037419 L8.02649572,29.8312258 C2.1280684,28.9517419 0.49211401,24.523871 0.0480335665,21.7935484 C0.0465349823,21.7827097 0.0475340384,21.7744516 0.0460354542,21.7625806 C-0.214718192,19.9163871 0.670445527,19.6252903 1.7364384,19.6129032 L1.90927511,19.6129032 C2.12956699,19.616 2.35435461,19.6258065 2.57764365,19.6356129 C3.94834865,19.6939355 4.65667943,20.2178065 4.76907325,21.4503226 C4.77306947,21.4823226 4.7770657,21.5148387 4.77956334,21.5473548 C4.78156145,21.5752258 4.78755579,21.5984516 4.78855484,21.6268387 C4.79055295,21.6609032 4.79554823,21.6887742 4.80503927,21.7104516 C4.99535946,23.012129 5.73016523,24.5522581 8.02649572,25.1855484 L8.02649572,18.0965161 C2.94030103,16.2663226 0.24784479,13.5344516 0.0410401736,10.5821935 C-0.123804086,8.23380645 0.984149148,2.99509677 8.02649572,2.02529032 L8.02649572,1.55870968 C8.02649572,0.453677419 9.14443951,0 10.524136,0 C11.9038325,0 13.0217763,0.453677419 13.0217763,1.55870968 L13.0217763,2.09445161 C17.9516187,3.00954839 20.012172,6.53006452 20.858872,8.95690323 C21.2914633,10.683871 20.4867236,11.220129 19.4886665,11.3548387 Z M12.9878084,25.3429677 C15.8905659,24.9243871 16.5949005,23.5587097 15.7167302,21.2552258 C15.4884459,20.6590968 14.4454313,20.1409032 12.9878084,19.6356129 L12.9878084,25.3429677 Z M8.02649572,6.80567742 C6.1247924,7.27896774 5.05080707,8.29522581 4.98137267,9.73316129 C4.92592506,10.8934194 5.55383183,12.32 8.02649572,13.3749677 L8.02649572,6.80567742 Z" fill-rule="nonzero"></path>
                    </g>
                </g>
            </g>
        </g>
    </g>
</svg>