<?xml version="1.0" encoding="UTF-8"?>
<svg width="26px" height="22px" viewBox="0 0 26 22" version="1.1" xmlns="http://www.w3.org/2000/svg" xmlns:xlink="http://www.w3.org/1999/xlink">
    <!-- Generator: Sketch 51.3 (57544) - http://www.bohemiancoding.com/sketch -->
    <title>Combined Shape</title>
    <desc>Created with Sketch.</desc>
    <defs></defs>
    <g id="Symbols" stroke="none" stroke-width="1" fill="none" fill-rule="evenodd">
        <g id="Combined-Shape" stroke="#FFFFFF">
            <g>
                <path d="M4.44672703,3.63060426 L4.34706598,3.64063724 L2,3.64063724 C1.17157288,3.64063724 0.5,4.31221012 0.5,5.14063724 L0.5,19.9977801 C0.5,20.8262072 1.17157288,21.4977801 2,21.4977801 L24,21.4977801 C24.8284271,21.4977801 25.5,20.8262072 25.5,19.9977801 L25.5,5.14063724 C25.5,4.31221012 24.8284271,3.64063724 24,3.64063724 L23.3356217,3.64063724 L22.760296,2.51645138 C22.0448585,1.118487 20.4858689,0.368185361 18.9469808,0.681200713 L4.44672703,3.63060426 Z"></path>
                <ellipse id="Oval-7" cx="22.0606061" cy="12.5714286" rx="1.57575758" ry="1.57142857"></ellipse>
                <path d="M25.336735,8.64285714 L25.336735,16.5 L22.0497835,16.5 C19.8800935,16.5 18.1212121,14.7411187 18.1212121,12.5714286 L18.1212121,12.5714286 C18.1212121,10.4017385 19.8800935,8.64285714 22.0497835,8.64285714 L25.336735,8.64285714 Z" id="Path-6"></path>
                <path d="M3.54545455,3.53571429 L23.2424242,3.53571429" id="Line" stroke-linecap="square"></path>
            </g>
        </g>
    </g>
</svg>