<?xml version="1.0" encoding="UTF-8"?>
<svg width="27px" height="28px" viewBox="0 0 27 28" version="1.1" xmlns="http://www.w3.org/2000/svg" xmlns:xlink="http://www.w3.org/1999/xlink">
    <!-- Generator: Sketch 51.3 (57544) - http://www.bohemiancoding.com/sketch -->
    <title>Shape</title>
    <desc>Created with Sketch.</desc>
    <defs></defs>
    <g id="Shape" stroke="none" stroke-width="1" fill="none" fill-rule="evenodd">
        <g transform="translate(2.000000, 2.000000)" fill-rule="nonzero" stroke="#FFFFFF">
            <path d="M24.1208124,18.7569806 C23.8971715,14.4836715 23.2663177,6.56025396 23.2663177,6.56025396 C23.2663177,5.52439971 22.4323234,4.6845559 21.4026434,4.6845559 C21.4026434,4.6845559 19.7635418,4.8336739 17.6669081,4.97059986 C17.3882888,2.18049899 15.0041834,0 12.1038402,0 C9.20256512,0 6.8184597,2.18049899 6.54077222,4.97106878 C4.43388836,4.83414282 2.7854684,4.6845559 2.7854684,4.6845559 C1.75625424,4.6845559 0.921794043,5.52439971 0.921794043,6.56025396 C0.921794043,6.56025396 0.332872947,14.4292762 0.106436513,18.7569806 C-0.133045641,23.3322771 0.106436513,22.5083767 0.106436513,22.5083767 C0.106436513,23.5001521 0.873804428,24.3038887 1.84244917,24.3714138 C3.85894483,24.9528802 7.93992574,25.3172346 12.1150222,25.3172346 C16.2975734,25.3172346 20.3948615,24.9519424 22.4136867,24.3681313 C22.8511842,24.3310863 23.2467491,24.1477368 23.5458689,23.8588793 C23.5523917,23.8527833 23.5607783,23.8471562 23.5668352,23.8410602 C23.5812787,23.8269925 23.5933926,23.8101112 23.6073701,23.7946367 C23.6227454,23.7772865 23.6385867,23.7599362 23.6507005,23.7421171 C23.9395701,23.4119943 24.1208124,22.9833972 24.1208124,22.5083767 C24.1208124,22.5083767 24.3621582,23.3796385 24.1208124,18.7569806 Z M9.30832864,4.74786071 C9.30832864,3.1943138 10.5602519,1.93431362 12.1038402,1.93431362 C13.6474285,1.93431362 14.8993517,3.1943138 14.8993517,4.74786071 L14.8993517,5.1225314 C13.9321047,5.16379676 12.9695169,5.19099438 12.1038402,5.19099438 C11.2386293,5.19099438 10.2765075,5.16379676 9.30832864,5.1225314 L9.30832864,4.74786071 Z M7.65711316,8.13302679 L7.68273868,8.13302679 C7.72187584,7.71568397 8.06712152,7.38790573 8.49203927,7.38790573 C8.94351438,7.38790573 9.30972639,7.7564804 9.30972639,8.21039933 C9.30972639,8.24603759 9.30366945,8.28026908 9.29947618,8.3149695 L9.29947618,9.19045157 C9.29947618,10.5761235 10.7270507,12.1437382 12.1043061,12.1437382 C13.4815614,12.1437382 14.9096019,10.5761235 14.9096019,9.19045157 L14.9096019,8.13302679 L14.9342956,8.13302679 C14.9738987,7.71568397 15.3186784,7.38790573 15.7435962,7.38790573 C16.1955372,7.38790573 16.5612833,7.7564804 16.5612833,8.21039933 C16.5612833,8.24463082 16.5552264,8.27745554 16.551499,8.31028025 L16.551499,9.18998264 C16.551499,11.4994359 14.399887,13.3718515 12.104772,13.3718515 C9.80965704,13.3718515 7.658045,11.4994359 7.658045,9.18998264 L7.658045,8.13302679 L7.65711316,8.13302679 Z"></path>
        </g>
    </g>
</svg>